<?xml version="1.0" encoding="utf-8"?>
<!-- Generator: Adobe Illustrator 24.1.2, SVG Export Plug-In . SVG Version: 6.00 Build 0)  -->
<svg version="1.1" id="Calque_1" xmlns="http://www.w3.org/2000/svg" xmlns:xlink="http://www.w3.org/1999/xlink" x="0px" y="0px"
	 viewBox="0 0 595.3 841.9" style="enable-background:new 0 0 595.3 841.9;" xml:space="preserve">
<style type="text/css">
	.st0{fill:none;}
	.st1{fill:#1E762D;}
	.st2{fill:#83A831;}
	.st3{fill:#1E8B35;}
	.st4{fill:#3D2423;}
	.st5{fill:#785E5D;}
	.st6{fill:#472A29;}
	.st7{fill:#383125;}
	.st8{fill:#7A6956;}
	.st9{fill:#41392B;}
	.st10{fill:#2A5629;}
	.st11{fill:#7F8B42;}
	.st12{fill:#2E6530;}
	.st13{fill:#3B2B24;}
	.st14{fill:#796459;}
	.st15{fill:#44322A;}
	.st16{fill:#393025;}
	.st17{fill:#41382B;}
	.st18{fill:#16892F;}
	.st19{fill:#86BA26;}
	.st20{fill:#14A238;}
	.st21{fill:#24662B;}
	.st22{fill:#819A39;}
	.st23{fill:#267833;}
	.st24{fill:#3B2924;}
	.st25{fill:#79625B;}
	.st26{fill:#452F2A;}
	.st27{fill:#3C2624;}
	.st28{fill:#79605C;}
	.st29{fill:#462C29;}
	.st30{fill:#D51317;}
	.st31{fill:#1D1D1B;}
	.st32{fill:#F07E48;}
	.st33{fill:#4F682B;stroke:#1D1D1B;}
	.st34{fill:#69AF2B;}
	.st35{fill:#009735;}
	.st36{fill:#007D2B;}
	.st37{fill:#006A2C;}
	.st38{fill:#158C2F;}
	.st39{fill:#86BC25;}
	.st40{fill:#13A538;}
	.st41{fill:#00943E;}
	.st42{fill:#216020;}
	.st43{fill:#215123;}
	.st44{fill:#B8D05F;}
	.st45{fill:#B5CA47;}
	.st46{fill:#2B7428;}
	.st47{fill:#007A3E;}
	.st48{fill:#D4E0AE;}
	.st49{opacity:0.51;}
	.st50{fill:none;stroke:#000000;stroke-miterlimit:10;}
	.st51{fill:#CC4917;}
	.st52{stroke:#000000;stroke-miterlimit:10;}
	.st53{fill:url(#SVGID_157_);}
	.st54{fill:#533130;}
	.st55{fill:#313130;}
	.st56{fill:#256E30;}
	.st57{fill:url(#SVGID_182_);}
	.st58{opacity:0.74;}
	.st59{fill:url(#SVGID_183_);}
	.st60{opacity:0.87;}
	.st61{fill:url(#SVGID_184_);}
	.st62{fill:url(#SVGID_185_);}
</style>
<symbol  id="_x12_1784884409728_791696256_21" viewBox="-17.5 -30.2 35 60.4">
	<g>
		<g>
			<path class="st0" d="M-7.8,30.2c3.3-4.7,7.2-9.1,10-14.4c7.2-13,5.8-27.4,2.2-41.6"/>
			<path class="st1" d="M-7.9,30.2C-5,26.1-2.6,22.1,0,17.8c2.6-4.3,5-8.6,5.9-13.6c1.8-9.8-1-22.7-3.5-32.3c-0.3-1.1,2.5,0.8,2.8,2
				C6.1-22.2,9.6-9.3,7,3.6C4.8,14-1.8,21.9-7.9,30.2C-7.8,30.2-7.9,30.2-7.9,30.2L-7.9,30.2z"/>
		</g>
		<g>
			<path class="st0" d="M-3.4-25.3c5.3,24.6-13.5,11.7-13.8,38"/>
			<path class="st2" d="M-2.2-25.4c1.5,7,1.7,13.7-4.2,18.5c-2.2,1.8-4.7,2.8-6.5,5.1c-3.2,4-3.9,9.4-4.1,14.4
				c-0.1,4.4-0.5,4.4-0.5,0.1c0-4.4,0.5-8.9,2.4-13c1.2-2.6,3.3-4.6,5.3-6.6c1.8-1.8,3.9-3.1,5.2-5.4c2-3.8,1-8.9,0.2-12.9
				C-4.9-26.7-4.2-28.6-2.2-25.4L-2.2-25.4z"/>
		</g>
		<g>
			<path class="st0" d="M-6.8-26.6C-9-12.7-12,7.8-6.1,20.5"/>
			<path class="st3" d="M-6.2-24.8C-7.4-17.1-8.3-11.1-9-3.3c-0.6,7.9-0.3,16.4,3,23.7c0.1,0.2-0.2,0.3-0.3,0.1
				C-9.6,13.3-10,5.2-10-2.6c0-8.1,1.3-16.2,2.5-24.2c0.1-0.9,2.1-0.7,2,0.1L-6.2-24.8z"/>
		</g>
		<g>
			<path class="st0" d="M10.6-25.9C4.7-9.6,14.9-2,17.4,3.3"/>
			<path class="st3" d="M11.2-25.7c-2.1,6.1-2.5,12.8,0.2,18.8c1.6,3.6,4.4,6.5,6.1,10c0.1,0.2-0.2,0.3-0.3,0.1
				c-1.9-3.8-5.1-6.9-7-10.8c-3-6.1-3.2-11.4-1-17.7C9.6-26,11.5-26.5,11.2-25.7L11.2-25.7z"/>
		</g>
		<g>
			<path class="st0" d="M-0.6-28.6c-2.2,13.7,8.4,18,1.4,41"/>
			<path class="st3" d="M1-27.9c-0.9,6.1,0.3,10.7,1.6,16.5C4.4-3.3,3,6.9,0.6,14.7c-0.1,0.2,0.1-2.1,0.1-2.3
				C3.1,4.2,3.8-3.7,1.2-12C-0.6-17.5-1.4-22.2-0.5-28c0.1-0.9,0.4-2.8,0.3-2L1-27.9z"/>
		</g>
	</g>
</symbol>
<symbol  id="_x12_1784884409728_791696256_99" viewBox="-17.5 -30.2 35 60.4">
	<g>
		<g>
			<path class="st0" d="M-7.8,30.2c3.3-4.7,7.2-9.1,10-14.4c7.2-13,5.8-27.4,2.2-41.6"/>
			<path class="st4" d="M-7.9,30.2C-5,26.1-2.6,22.1,0,17.8c2.6-4.3,5-8.6,5.9-13.6c1.8-9.8-1-22.7-3.5-32.3c-0.3-1.1,2.5,0.8,2.8,2
				C6.1-22.2,9.6-9.3,7,3.6C4.8,14-1.8,21.9-7.9,30.2C-7.8,30.2-7.9,30.2-7.9,30.2L-7.9,30.2z"/>
		</g>
		<g>
			<path class="st0" d="M-3.4-25.3c5.3,24.6-13.5,11.7-13.8,38"/>
			<path class="st5" d="M-2.2-25.4c1.5,7,1.7,13.7-4.2,18.5c-2.2,1.8-4.7,2.8-6.5,5.1c-3.2,4-3.9,9.4-4.1,14.4
				c-0.1,4.4-0.5,4.4-0.5,0.1c0-4.4,0.5-8.9,2.4-13c1.2-2.6,3.3-4.6,5.3-6.6c1.8-1.8,3.9-3.1,5.2-5.4c2-3.8,1-8.9,0.2-12.9
				C-4.9-26.7-4.2-28.6-2.2-25.4L-2.2-25.4z"/>
		</g>
		<g>
			<path class="st0" d="M-6.8-26.6C-9-12.7-12,7.8-6.1,20.5"/>
			<path class="st6" d="M-6.2-24.8C-7.4-17.1-8.3-11.1-9-3.3c-0.6,7.9-0.3,16.4,3,23.7c0.1,0.2-0.2,0.3-0.3,0.1
				C-9.6,13.3-10,5.2-10-2.6c0-8.1,1.3-16.2,2.5-24.2c0.1-0.9,2.1-0.7,2,0.1L-6.2-24.8z"/>
		</g>
		<g>
			<path class="st0" d="M10.6-25.9C4.7-9.6,14.9-2,17.4,3.3"/>
			<path class="st6" d="M11.2-25.7c-2.1,6.1-2.5,12.8,0.2,18.8c1.6,3.6,4.4,6.5,6.1,10c0.1,0.2-0.2,0.3-0.3,0.1
				c-1.9-3.8-5.1-6.9-7-10.8c-3-6.1-3.2-11.4-1-17.7C9.6-26,11.5-26.5,11.2-25.7L11.2-25.7z"/>
		</g>
		<g>
			<path class="st0" d="M-0.6-28.6c-2.2,13.7,8.4,18,1.4,41"/>
			<path class="st6" d="M1-27.9c-0.9,6.1,0.3,10.7,1.6,16.5C4.4-3.3,3,6.9,0.6,14.7c-0.1,0.2,0.1-2.1,0.1-2.3
				C3.1,4.2,3.8-3.7,1.2-12C-0.6-17.5-1.4-22.2-0.5-28c0.1-0.9,0.4-2.8,0.3-2L1-27.9z"/>
		</g>
	</g>
</symbol>
<symbol  id="_x12_1784884409728_791761792_87" viewBox="-17.5 -30.2 35 60.4">
	<g>
		<g>
			<path class="st0" d="M-7.8,30.2c3.3-4.7,7.2-9.1,10-14.4c7.2-13,5.8-27.4,2.2-41.6"/>
			<path class="st7" d="M-7.9,30.2C-5,26.1-2.6,22.1,0,17.8c2.6-4.3,5-8.6,5.9-13.6c1.8-9.8-1-22.7-3.5-32.3c-0.3-1.1,2.5,0.8,2.8,2
				C6.1-22.2,9.6-9.3,7,3.6C4.8,14-1.8,21.9-7.9,30.2C-7.8,30.2-7.9,30.2-7.9,30.2L-7.9,30.2z"/>
		</g>
		<g>
			<path class="st0" d="M-3.4-25.3c5.3,24.6-13.5,11.7-13.8,38"/>
			<path class="st8" d="M-2.2-25.4c1.5,7,1.7,13.7-4.2,18.5c-2.2,1.8-4.7,2.8-6.5,5.1c-3.2,4-3.9,9.4-4.1,14.4
				c-0.1,4.4-0.5,4.4-0.5,0.1c0-4.4,0.5-8.9,2.4-13c1.2-2.6,3.3-4.6,5.3-6.6c1.8-1.8,3.9-3.1,5.2-5.4c2-3.8,1-8.9,0.2-12.9
				C-4.9-26.7-4.2-28.6-2.2-25.4L-2.2-25.4z"/>
		</g>
		<g>
			<path class="st0" d="M-6.8-26.6C-9-12.7-12,7.8-6.1,20.5"/>
			<path class="st9" d="M-6.2-24.8C-7.4-17.1-8.3-11.1-9-3.3c-0.6,7.9-0.3,16.4,3,23.7c0.1,0.2-0.2,0.3-0.3,0.1
				C-9.6,13.3-10,5.2-10-2.6c0-8.1,1.3-16.2,2.5-24.2c0.1-0.9,2.1-0.7,2,0.1L-6.2-24.8z"/>
		</g>
		<g>
			<path class="st0" d="M10.6-25.9C4.7-9.6,14.9-2,17.4,3.3"/>
			<path class="st9" d="M11.2-25.7c-2.1,6.1-2.5,12.8,0.2,18.8c1.6,3.6,4.4,6.5,6.1,10c0.1,0.2-0.2,0.3-0.3,0.1
				c-1.9-3.8-5.1-6.9-7-10.8c-3-6.1-3.2-11.4-1-17.7C9.6-26,11.5-26.5,11.2-25.7L11.2-25.7z"/>
		</g>
		<g>
			<path class="st0" d="M-0.6-28.6c-2.2,13.7,8.4,18,1.4,41"/>
			<path class="st9" d="M1-27.9c-0.9,6.1,0.3,10.7,1.6,16.5C4.4-3.3,3,6.9,0.6,14.7c-0.1,0.2,0.1-2.1,0.1-2.3
				C3.1,4.2,3.8-3.7,1.2-12C-0.6-17.5-1.4-22.2-0.5-28c0.1-0.9,0.4-2.8,0.3-2L1-27.9z"/>
		</g>
	</g>
</symbol>
<symbol  id="_x12_1784884409728_808473216_51" viewBox="-17.5 -30.2 35 60.4">
	<g>
		<g>
			<path class="st0" d="M-7.8,30.2c3.3-4.7,7.2-9.1,10-14.4c7.2-13,5.8-27.4,2.2-41.6"/>
			<path class="st10" d="M-7.9,30.2C-5,26.1-2.6,22.1,0,17.8c2.6-4.3,5-8.6,5.9-13.6c1.8-9.8-1-22.7-3.5-32.3
				c-0.3-1.1,2.5,0.8,2.8,2C6.1-22.2,9.6-9.3,7,3.6C4.8,14-1.8,21.9-7.9,30.2C-7.8,30.2-7.9,30.2-7.9,30.2L-7.9,30.2z"/>
		</g>
		<g>
			<path class="st0" d="M-3.4-25.3c5.3,24.6-13.5,11.7-13.8,38"/>
			<path class="st11" d="M-2.2-25.4c1.5,7,1.7,13.7-4.2,18.5c-2.2,1.8-4.7,2.8-6.5,5.1c-3.2,4-3.9,9.4-4.1,14.4
				c-0.1,4.4-0.5,4.4-0.5,0.1c0-4.4,0.5-8.9,2.4-13c1.2-2.6,3.3-4.6,5.3-6.6c1.8-1.8,3.9-3.1,5.2-5.4c2-3.8,1-8.9,0.2-12.9
				C-4.9-26.7-4.2-28.6-2.2-25.4L-2.2-25.4z"/>
		</g>
		<g>
			<path class="st0" d="M-6.8-26.6C-9-12.7-12,7.8-6.1,20.5"/>
			<path class="st12" d="M-6.2-24.8C-7.4-17.1-8.3-11.1-9-3.3c-0.6,7.9-0.3,16.4,3,23.7c0.1,0.2-0.2,0.3-0.3,0.1
				C-9.6,13.3-10,5.2-10-2.6c0-8.1,1.3-16.2,2.5-24.2c0.1-0.9,2.1-0.7,2,0.1L-6.2-24.8z"/>
		</g>
		<g>
			<path class="st0" d="M10.6-25.9C4.7-9.6,14.9-2,17.4,3.3"/>
			<path class="st12" d="M11.2-25.7c-2.1,6.1-2.5,12.8,0.2,18.8c1.6,3.6,4.4,6.5,6.1,10c0.1,0.2-0.2,0.3-0.3,0.1
				c-1.9-3.8-5.1-6.9-7-10.8c-3-6.1-3.2-11.4-1-17.7C9.6-26,11.5-26.5,11.2-25.7L11.2-25.7z"/>
		</g>
		<g>
			<path class="st0" d="M-0.6-28.6c-2.2,13.7,8.4,18,1.4,41"/>
			<path class="st12" d="M1-27.9c-0.9,6.1,0.3,10.7,1.6,16.5C4.4-3.3,3,6.9,0.6,14.7c-0.1,0.2,0.1-2.1,0.1-2.3
				C3.1,4.2,3.8-3.7,1.2-12C-0.6-17.5-1.4-22.2-0.5-28c0.1-0.9,0.4-2.8,0.3-2L1-27.9z"/>
		</g>
	</g>
</symbol>
<symbol  id="_x12_1784884409728_808473216_93" viewBox="-17.5 -30.2 35 60.4">
	<g>
		<g>
			<path class="st0" d="M-7.8,30.2c3.3-4.7,7.2-9.1,10-14.4c7.2-13,5.8-27.4,2.2-41.6"/>
			<path class="st13" d="M-7.9,30.2C-5,26.1-2.6,22.1,0,17.8c2.6-4.3,5-8.6,5.9-13.6c1.8-9.8-1-22.7-3.5-32.3
				c-0.3-1.1,2.5,0.8,2.8,2C6.1-22.2,9.6-9.3,7,3.6C4.8,14-1.8,21.9-7.9,30.2C-7.8,30.2-7.9,30.2-7.9,30.2L-7.9,30.2z"/>
		</g>
		<g>
			<path class="st0" d="M-3.4-25.3c5.3,24.6-13.5,11.7-13.8,38"/>
			<path class="st14" d="M-2.2-25.4c1.5,7,1.7,13.7-4.2,18.5c-2.2,1.8-4.7,2.8-6.5,5.1c-3.2,4-3.9,9.4-4.1,14.4
				c-0.1,4.4-0.5,4.4-0.5,0.1c0-4.4,0.5-8.9,2.4-13c1.2-2.6,3.3-4.6,5.3-6.6c1.8-1.8,3.9-3.1,5.2-5.4c2-3.8,1-8.9,0.2-12.9
				C-4.9-26.7-4.2-28.6-2.2-25.4L-2.2-25.4z"/>
		</g>
		<g>
			<path class="st0" d="M-6.8-26.6C-9-12.7-12,7.8-6.1,20.5"/>
			<path class="st15" d="M-6.2-24.8C-7.4-17.1-8.3-11.1-9-3.3c-0.6,7.9-0.3,16.4,3,23.7c0.1,0.2-0.2,0.3-0.3,0.1
				C-9.6,13.3-10,5.2-10-2.6c0-8.1,1.3-16.2,2.5-24.2c0.1-0.9,2.1-0.7,2,0.1L-6.2-24.8z"/>
		</g>
		<g>
			<path class="st0" d="M10.6-25.9C4.7-9.6,14.9-2,17.4,3.3"/>
			<path class="st15" d="M11.2-25.7c-2.1,6.1-2.5,12.8,0.2,18.8c1.6,3.6,4.4,6.5,6.1,10c0.1,0.2-0.2,0.3-0.3,0.1
				c-1.9-3.8-5.1-6.9-7-10.8c-3-6.1-3.2-11.4-1-17.7C9.6-26,11.5-26.5,11.2-25.7L11.2-25.7z"/>
		</g>
		<g>
			<path class="st0" d="M-0.6-28.6c-2.2,13.7,8.4,18,1.4,41"/>
			<path class="st15" d="M1-27.9c-0.9,6.1,0.3,10.7,1.6,16.5C4.4-3.3,3,6.9,0.6,14.7c-0.1,0.2,0.1-2.1,0.1-2.3
				C3.1,4.2,3.8-3.7,1.2-12C-0.6-17.5-1.4-22.2-0.5-28c0.1-0.9,0.4-2.8,0.3-2L1-27.9z"/>
		</g>
	</g>
</symbol>
<symbol  id="_x12_1784884409728_808538752_88" viewBox="-17.5 -30.2 35 60.4">
	<g>
		<g>
			<path class="st0" d="M-7.8,30.2c3.3-4.7,7.2-9.1,10-14.4c7.2-13,5.8-27.4,2.2-41.6"/>
			<path class="st16" d="M-7.9,30.2C-5,26.1-2.6,22.1,0,17.8c2.6-4.3,5-8.6,5.9-13.6c1.8-9.8-1-22.7-3.5-32.3
				c-0.3-1.1,2.5,0.8,2.8,2C6.1-22.2,9.6-9.3,7,3.6C4.8,14-1.8,21.9-7.9,30.2C-7.8,30.2-7.9,30.2-7.9,30.2L-7.9,30.2z"/>
		</g>
		<g>
			<path class="st0" d="M-3.4-25.3c5.3,24.6-13.5,11.7-13.8,38"/>
			<path class="st8" d="M-2.2-25.4c1.5,7,1.7,13.7-4.2,18.5c-2.2,1.8-4.7,2.8-6.5,5.1c-3.2,4-3.9,9.4-4.1,14.4
				c-0.1,4.4-0.5,4.4-0.5,0.1c0-4.4,0.5-8.9,2.4-13c1.2-2.6,3.3-4.6,5.3-6.6c1.8-1.8,3.9-3.1,5.2-5.4c2-3.8,1-8.9,0.2-12.9
				C-4.9-26.7-4.2-28.6-2.2-25.4L-2.2-25.4z"/>
		</g>
		<g>
			<path class="st0" d="M-6.8-26.6C-9-12.7-12,7.8-6.1,20.5"/>
			<path class="st17" d="M-6.2-24.8C-7.4-17.1-8.3-11.1-9-3.3c-0.6,7.9-0.3,16.4,3,23.7c0.1,0.2-0.2,0.3-0.3,0.1
				C-9.6,13.3-10,5.2-10-2.6c0-8.1,1.3-16.2,2.5-24.2c0.1-0.9,2.1-0.7,2,0.1L-6.2-24.8z"/>
		</g>
		<g>
			<path class="st0" d="M10.6-25.9C4.7-9.6,14.9-2,17.4,3.3"/>
			<path class="st17" d="M11.2-25.7c-2.1,6.1-2.5,12.8,0.2,18.8c1.6,3.6,4.4,6.5,6.1,10c0.1,0.2-0.2,0.3-0.3,0.1
				c-1.9-3.8-5.1-6.9-7-10.8c-3-6.1-3.2-11.4-1-17.7C9.6-26,11.5-26.5,11.2-25.7L11.2-25.7z"/>
		</g>
		<g>
			<path class="st0" d="M-0.6-28.6c-2.2,13.7,8.4,18,1.4,41"/>
			<path class="st17" d="M1-27.9c-0.9,6.1,0.3,10.7,1.6,16.5C4.4-3.3,3,6.9,0.6,14.7c-0.1,0.2,0.1-2.1,0.1-2.3
				C3.1,4.2,3.8-3.7,1.2-12C-0.6-17.5-1.4-22.2-0.5-28c0.1-0.9,0.4-2.8,0.3-2L1-27.9z"/>
		</g>
	</g>
</symbol>
<symbol  id="_x12_1784884409728_808539008_2" viewBox="-17.5 -30.2 35 60.4">
	<g>
		<g>
			<path class="st0" d="M-7.8,30.2c3.3-4.7,7.2-9.1,10-14.4c7.2-13,5.8-27.4,2.2-41.6"/>
			<path class="st18" d="M-7.9,30.2C-5,26.1-2.6,22.1,0,17.8c2.6-4.3,5-8.6,5.9-13.6c1.8-9.8-1-22.7-3.5-32.3
				c-0.3-1.1,2.5,0.8,2.8,2C6.1-22.2,9.6-9.3,7,3.6C4.8,14-1.8,21.9-7.9,30.2C-7.8,30.2-7.9,30.2-7.9,30.2L-7.9,30.2z"/>
		</g>
		<g>
			<path class="st0" d="M-3.4-25.3c5.3,24.6-13.5,11.7-13.8,38"/>
			<path class="st19" d="M-2.2-25.4c1.5,7,1.7,13.7-4.2,18.5c-2.2,1.8-4.7,2.8-6.5,5.1c-3.2,4-3.9,9.4-4.1,14.4
				c-0.1,4.4-0.5,4.4-0.5,0.1c0-4.4,0.5-8.9,2.4-13c1.2-2.6,3.3-4.6,5.3-6.6c1.8-1.8,3.9-3.1,5.2-5.4c2-3.8,1-8.9,0.2-12.9
				C-4.9-26.7-4.2-28.6-2.2-25.4L-2.2-25.4z"/>
		</g>
		<g>
			<path class="st0" d="M-6.8-26.6C-9-12.7-12,7.8-6.1,20.5"/>
			<path class="st20" d="M-6.2-24.8C-7.4-17.1-8.3-11.1-9-3.3c-0.6,7.9-0.3,16.4,3,23.7c0.1,0.2-0.2,0.3-0.3,0.1
				C-9.6,13.3-10,5.2-10-2.6c0-8.1,1.3-16.2,2.5-24.2c0.1-0.9,2.1-0.7,2,0.1L-6.2-24.8z"/>
		</g>
		<g>
			<path class="st0" d="M10.6-25.9C4.7-9.6,14.9-2,17.4,3.3"/>
			<path class="st20" d="M11.2-25.7c-2.1,6.1-2.5,12.8,0.2,18.8c1.6,3.6,4.4,6.5,6.1,10c0.1,0.2-0.2,0.3-0.3,0.1
				c-1.9-3.8-5.1-6.9-7-10.8c-3-6.1-3.2-11.4-1-17.7C9.6-26,11.5-26.5,11.2-25.7L11.2-25.7z"/>
		</g>
		<g>
			<path class="st0" d="M-0.6-28.6c-2.2,13.7,8.4,18,1.4,41"/>
			<path class="st20" d="M1-27.9c-0.9,6.1,0.3,10.7,1.6,16.5C4.4-3.3,3,6.9,0.6,14.7c-0.1,0.2,0.1-2.1,0.1-2.3
				C3.1,4.2,3.8-3.7,1.2-12C-0.6-17.5-1.4-22.2-0.5-28c0.1-0.9,0.4-2.8,0.3-2L1-27.9z"/>
		</g>
	</g>
</symbol>
<symbol  id="_x12_1784884409728_808539008_36" viewBox="-17.5 -30.2 35 60.4">
	<g>
		<g>
			<path class="st0" d="M-7.8,30.2c3.3-4.7,7.2-9.1,10-14.4c7.2-13,5.8-27.4,2.2-41.6"/>
			<path class="st21" d="M-7.9,30.2C-5,26.1-2.6,22.1,0,17.8c2.6-4.3,5-8.6,5.9-13.6c1.8-9.8-1-22.7-3.5-32.3
				c-0.3-1.1,2.5,0.8,2.8,2C6.1-22.2,9.6-9.3,7,3.6C4.8,14-1.8,21.9-7.9,30.2C-7.8,30.2-7.9,30.2-7.9,30.2L-7.9,30.2z"/>
		</g>
		<g>
			<path class="st0" d="M-3.4-25.3c5.3,24.6-13.5,11.7-13.8,38"/>
			<path class="st22" d="M-2.2-25.4c1.5,7,1.7,13.7-4.2,18.5c-2.2,1.8-4.7,2.8-6.5,5.1c-3.2,4-3.9,9.4-4.1,14.4
				c-0.1,4.4-0.5,4.4-0.5,0.1c0-4.4,0.5-8.9,2.4-13c1.2-2.6,3.3-4.6,5.3-6.6c1.8-1.8,3.9-3.1,5.2-5.4c2-3.8,1-8.9,0.2-12.9
				C-4.9-26.7-4.2-28.6-2.2-25.4L-2.2-25.4z"/>
		</g>
		<g>
			<path class="st0" d="M-6.8-26.6C-9-12.7-12,7.8-6.1,20.5"/>
			<path class="st23" d="M-6.2-24.8C-7.4-17.1-8.3-11.1-9-3.3c-0.6,7.9-0.3,16.4,3,23.7c0.1,0.2-0.2,0.3-0.3,0.1
				C-9.6,13.3-10,5.2-10-2.6c0-8.1,1.3-16.2,2.5-24.2c0.1-0.9,2.1-0.7,2,0.1L-6.2-24.8z"/>
		</g>
		<g>
			<path class="st0" d="M10.6-25.9C4.7-9.6,14.9-2,17.4,3.3"/>
			<path class="st23" d="M11.2-25.7c-2.1,6.1-2.5,12.8,0.2,18.8c1.6,3.6,4.4,6.5,6.1,10c0.1,0.2-0.2,0.3-0.3,0.1
				c-1.9-3.8-5.1-6.9-7-10.8c-3-6.1-3.2-11.4-1-17.7C9.6-26,11.5-26.5,11.2-25.7L11.2-25.7z"/>
		</g>
		<g>
			<path class="st0" d="M-0.6-28.6c-2.2,13.7,8.4,18,1.4,41"/>
			<path class="st23" d="M1-27.9c-0.9,6.1,0.3,10.7,1.6,16.5C4.4-3.3,3,6.9,0.6,14.7c-0.1,0.2,0.1-2.1,0.1-2.3
				C3.1,4.2,3.8-3.7,1.2-12C-0.6-17.5-1.4-22.2-0.5-28c0.1-0.9,0.4-2.8,0.3-2L1-27.9z"/>
		</g>
	</g>
</symbol>
<symbol  id="_x12_1784884409728_808539008_95" viewBox="-17.5 -30.2 35 60.4">
	<g>
		<g>
			<path class="st0" d="M-7.8,30.2c3.3-4.7,7.2-9.1,10-14.4c7.2-13,5.8-27.4,2.2-41.6"/>
			<path class="st24" d="M-7.9,30.2C-5,26.1-2.6,22.1,0,17.8c2.6-4.3,5-8.6,5.9-13.6c1.8-9.8-1-22.7-3.5-32.3
				c-0.3-1.1,2.5,0.8,2.8,2C6.1-22.2,9.6-9.3,7,3.6C4.8,14-1.8,21.9-7.9,30.2C-7.8,30.2-7.9,30.2-7.9,30.2L-7.9,30.2z"/>
		</g>
		<g>
			<path class="st0" d="M-3.4-25.3c5.3,24.6-13.5,11.7-13.8,38"/>
			<path class="st25" d="M-2.2-25.4c1.5,7,1.7,13.7-4.2,18.5c-2.2,1.8-4.7,2.8-6.5,5.1c-3.2,4-3.9,9.4-4.1,14.4
				c-0.1,4.4-0.5,4.4-0.5,0.1c0-4.4,0.5-8.9,2.4-13c1.2-2.6,3.3-4.6,5.3-6.6c1.8-1.8,3.9-3.1,5.2-5.4c2-3.8,1-8.9,0.2-12.9
				C-4.9-26.7-4.2-28.6-2.2-25.4L-2.2-25.4z"/>
		</g>
		<g>
			<path class="st0" d="M-6.8-26.6C-9-12.7-12,7.8-6.1,20.5"/>
			<path class="st26" d="M-6.2-24.8C-7.4-17.1-8.3-11.1-9-3.3c-0.6,7.9-0.3,16.4,3,23.7c0.1,0.2-0.2,0.3-0.3,0.1
				C-9.6,13.3-10,5.2-10-2.6c0-8.1,1.3-16.2,2.5-24.2c0.1-0.9,2.1-0.7,2,0.1L-6.2-24.8z"/>
		</g>
		<g>
			<path class="st0" d="M10.6-25.9C4.7-9.6,14.9-2,17.4,3.3"/>
			<path class="st26" d="M11.2-25.7c-2.1,6.1-2.5,12.8,0.2,18.8c1.6,3.6,4.4,6.5,6.1,10c0.1,0.2-0.2,0.3-0.3,0.1
				c-1.9-3.8-5.1-6.9-7-10.8c-3-6.1-3.2-11.4-1-17.7C9.6-26,11.5-26.5,11.2-25.7L11.2-25.7z"/>
		</g>
		<g>
			<path class="st0" d="M-0.6-28.6c-2.2,13.7,8.4,18,1.4,41"/>
			<path class="st26" d="M1-27.9c-0.9,6.1,0.3,10.7,1.6,16.5C4.4-3.3,3,6.9,0.6,14.7c-0.1,0.2,0.1-2.1,0.1-2.3
				C3.1,4.2,3.8-3.7,1.2-12C-0.6-17.5-1.4-22.2-0.5-28c0.1-0.9,0.4-2.8,0.3-2L1-27.9z"/>
		</g>
	</g>
</symbol>
<symbol  id="_x12_1784884409728_808539008_97" viewBox="-17.5 -30.2 35 60.4">
	<g>
		<g>
			<path class="st0" d="M-7.8,30.2c3.3-4.7,7.2-9.1,10-14.4c7.2-13,5.8-27.4,2.2-41.6"/>
			<path class="st27" d="M-7.9,30.2C-5,26.1-2.6,22.1,0,17.8c2.6-4.3,5-8.6,5.9-13.6c1.8-9.8-1-22.7-3.5-32.3
				c-0.3-1.1,2.5,0.8,2.8,2C6.1-22.2,9.6-9.3,7,3.6C4.8,14-1.8,21.9-7.9,30.2C-7.8,30.2-7.9,30.2-7.9,30.2L-7.9,30.2z"/>
		</g>
		<g>
			<path class="st0" d="M-3.4-25.3c5.3,24.6-13.5,11.7-13.8,38"/>
			<path class="st28" d="M-2.2-25.4c1.5,7,1.7,13.7-4.2,18.5c-2.2,1.8-4.7,2.8-6.5,5.1c-3.2,4-3.9,9.4-4.1,14.4
				c-0.1,4.4-0.5,4.4-0.5,0.1c0-4.4,0.5-8.9,2.4-13c1.2-2.6,3.3-4.6,5.3-6.6c1.8-1.8,3.9-3.1,5.2-5.4c2-3.8,1-8.9,0.2-12.9
				C-4.9-26.7-4.2-28.6-2.2-25.4L-2.2-25.4z"/>
		</g>
		<g>
			<path class="st0" d="M-6.8-26.6C-9-12.7-12,7.8-6.1,20.5"/>
			<path class="st29" d="M-6.2-24.8C-7.4-17.1-8.3-11.1-9-3.3c-0.6,7.9-0.3,16.4,3,23.7c0.1,0.2-0.2,0.3-0.3,0.1
				C-9.6,13.3-10,5.2-10-2.6c0-8.1,1.3-16.2,2.5-24.2c0.1-0.9,2.1-0.7,2,0.1L-6.2-24.8z"/>
		</g>
		<g>
			<path class="st0" d="M10.6-25.9C4.7-9.6,14.9-2,17.4,3.3"/>
			<path class="st29" d="M11.2-25.7c-2.1,6.1-2.5,12.8,0.2,18.8c1.6,3.6,4.4,6.5,6.1,10c0.1,0.2-0.2,0.3-0.3,0.1
				c-1.9-3.8-5.1-6.9-7-10.8c-3-6.1-3.2-11.4-1-17.7C9.6-26,11.5-26.5,11.2-25.7L11.2-25.7z"/>
		</g>
		<g>
			<path class="st0" d="M-0.6-28.6c-2.2,13.7,8.4,18,1.4,41"/>
			<path class="st29" d="M1-27.9c-0.9,6.1,0.3,10.7,1.6,16.5C4.4-3.3,3,6.9,0.6,14.7c-0.1,0.2,0.1-2.1,0.1-2.3
				C3.1,4.2,3.8-3.7,1.2-12C-0.6-17.5-1.4-22.2-0.5-28c0.1-0.9,0.4-2.8,0.3-2L1-27.9z"/>
		</g>
	</g>
</symbol>
<symbol  id="_x12_1784884409728_808539008_99" viewBox="-17.5 -30.2 35 60.4">
	<g>
		<g>
			<path class="st0" d="M-7.8,30.2c3.3-4.7,7.2-9.1,10-14.4c7.2-13,5.8-27.4,2.2-41.6"/>
			<path class="st4" d="M-7.9,30.2C-5,26.1-2.6,22.1,0,17.8c2.6-4.3,5-8.6,5.9-13.6c1.8-9.8-1-22.7-3.5-32.3c-0.3-1.1,2.5,0.8,2.8,2
				C6.1-22.2,9.6-9.3,7,3.6C4.8,14-1.8,21.9-7.9,30.2C-7.8,30.2-7.9,30.2-7.9,30.2L-7.9,30.2z"/>
		</g>
		<g>
			<path class="st0" d="M-3.4-25.3c5.3,24.6-13.5,11.7-13.8,38"/>
			<path class="st5" d="M-2.2-25.4c1.5,7,1.7,13.7-4.2,18.5c-2.2,1.8-4.7,2.8-6.5,5.1c-3.2,4-3.9,9.4-4.1,14.4
				c-0.1,4.4-0.5,4.4-0.5,0.1c0-4.4,0.5-8.9,2.4-13c1.2-2.6,3.3-4.6,5.3-6.6c1.8-1.8,3.9-3.1,5.2-5.4c2-3.8,1-8.9,0.2-12.9
				C-4.9-26.7-4.2-28.6-2.2-25.4L-2.2-25.4z"/>
		</g>
		<g>
			<path class="st0" d="M-6.8-26.6C-9-12.7-12,7.8-6.1,20.5"/>
			<path class="st6" d="M-6.2-24.8C-7.4-17.1-8.3-11.1-9-3.3c-0.6,7.9-0.3,16.4,3,23.7c0.1,0.2-0.2,0.3-0.3,0.1
				C-9.6,13.3-10,5.2-10-2.6c0-8.1,1.3-16.2,2.5-24.2c0.1-0.9,2.1-0.7,2,0.1L-6.2-24.8z"/>
		</g>
		<g>
			<path class="st0" d="M10.6-25.9C4.7-9.6,14.9-2,17.4,3.3"/>
			<path class="st6" d="M11.2-25.7c-2.1,6.1-2.5,12.8,0.2,18.8c1.6,3.6,4.4,6.5,6.1,10c0.1,0.2-0.2,0.3-0.3,0.1
				c-1.9-3.8-5.1-6.9-7-10.8c-3-6.1-3.2-11.4-1-17.7C9.6-26,11.5-26.5,11.2-25.7L11.2-25.7z"/>
		</g>
		<g>
			<path class="st0" d="M-0.6-28.6c-2.2,13.7,8.4,18,1.4,41"/>
			<path class="st6" d="M1-27.9c-0.9,6.1,0.3,10.7,1.6,16.5C4.4-3.3,3,6.9,0.6,14.7c-0.1,0.2,0.1-2.1,0.1-2.3
				C3.1,4.2,3.8-3.7,1.2-12C-0.6-17.5-1.4-22.2-0.5-28c0.1-0.9,0.4-2.8,0.3-2L1-27.9z"/>
		</g>
	</g>
</symbol>
<symbol  id="Coccinelle" viewBox="-25.1 -28 50.1 56">
	<rect x="-25.1" y="-28" class="st0" width="50.1" height="56"/>
	<g>
		<path class="st30" d="M12,6.4C10.2,12.9,0.1,9.5,0.1,9.5l0-0.1c0,0-10.1,3.4-11.9-3.1c0,0-6-17.4-0.8-24.1c0,0,6.7-9.6,10.9-9.6
			l3.6,0.1c4.2,0,10.9,9.6,10.9,9.6C18-11,12,6.4,12,6.4z"/>
		<g>
			<path class="st31" d="M7.5,28c0,0-0.7-1.4-1.5-2.5C6.5,25.9,7.4,26.8,7.5,28z"/>
			<path class="st31" d="M-6.1,25.5C-6.9,26.6-7.7,28-7.7,28C-7.5,26.8-6.6,25.9-6.1,25.5z"/>
		</g>
		<path class="st32" d="M8.3,3.5C7,8.2-0.2,5.8-0.2,5.8l0-0.1c0,0-7.3,2.4-8.6-2.2c0,0-4.3-12.5-0.6-17.4c0,0,4.8-6.9,7.8-6.9l2.6,0
			c3,0,7.8,6.9,7.8,6.9C12.6-9,8.3,3.5,8.3,3.5z"/>
		<g>
			<path class="st33" d="M4.3,0.7c0.8,0,1.5,0.7,1.5,1.5S5.1,3.6,4.3,3.6S2.8,3,2.8,2.2S3.5,0.7,4.3,0.7z"/>
			<path class="st33" d="M4.6-11c1.3,0,2.3,0.9,2.3,2s-1,2-2.3,2S2.3-8,2.3-9.1S3.3-11,4.6-11z"/>
			<path class="st33" d="M5.1-22.8c1.5,0,2.8,0.7,2.8,1.5c0,0.8-1.3,1.5-2.8,1.5s-2.8-0.7-2.8-1.5C2.3-22.1,3.6-22.8,5.1-22.8z"/>
			<path class="st33" d="M9.3,5.5c0.7,0,1.3,0.7,1.3,1.6s-0.6,1.6-1.3,1.6S8,7.9,8,7.1C8,6.2,8.6,5.5,9.3,5.5z"/>
			<path class="st33" d="M10.9-16.1c-0.9,0.4-1.1,1.8-0.6,3.1c0.6,1.4,1.7,2.2,2.6,1.9s1.1-1.8,0.6-3.1C13-15.6,11.8-16.4,10.9-16.1
				z"/>
			<g>
				<path class="st33" d="M-4.1,0.8c-0.8,0-1.5,0.7-1.5,1.5s0.7,1.5,1.5,1.5s1.5-0.7,1.5-1.5C-2.7,1.5-3.3,0.8-4.1,0.8z"/>
				<path class="st33" d="M-4.4-10.9c-1.3,0-2.3,0.9-2.3,2s1,2,2.3,2s2.3-0.9,2.3-2C-2.1-10-3.1-10.9-4.4-10.9z"/>
				<ellipse class="st33" cx="-4.9" cy="-21.2" rx="2.8" ry="1.5"/>
				<path class="st33" d="M-9.1,5.6c-0.7,0-1.3,0.7-1.3,1.6s0.6,1.6,1.3,1.6s1.3-0.7,1.3-1.6C-7.8,6.3-8.4,5.6-9.1,5.6z"/>
				<path class="st33" d="M-10.7-16c0.9,0.4,1.1,1.8,0.6,3.1c-0.6,1.4-1.7,2.2-2.6,1.9s-1.1-1.8-0.6-3.1S-11.6-16.3-10.7-16z"/>
			</g>
		</g>
		<line class="st0" x1="-0.2" y1="5.3" x2="-0.2" y2="-27.3"/>
		<g>
			<path class="st31" d="M15.6,19.5c-0.7,0.7-3.6-0.2-3.6-0.2c-1.2-0.2-1-2.6-1-2.6c1-2.1,0.4-1.9,0.4-1.9c-0.6,0-2.1,0.1-3.1,0.1
				c-0.3,1.4-1.8,2.6-3.9,3.3c2,3.3,0.2,4-1.6,4c0,0.1,0,0.2-0.1,0.3c2.3,0,2.7,2.3,2.7,2.3c0.2,0.2,0.5,0.5,0.7,0.8
				c-0.2-0.2-0.4-0.3-0.4-0.3c-1,0-2.6-1.8-3.2-2.5C2,23.5,1.1,24.1,0,24.1c-1.1,0-2.1-0.6-2.5-1.4c-0.6,0.7-2.3,2.5-3.3,2.5
				c0,0-0.2,0.1-0.4,0.3c0.2-0.3,0.5-0.6,0.7-0.8c0,0,0.5-2.4,2.8-2.3c0,0,0-0.1,0-0.2c-3.3,0-2.4-2.6-1.6-4c-2.4-0.7-4-2-4.3-3.6
				c-0.9-0.1-2.1-0.1-2.7-0.1c0,0-0.7-0.2,0.3,1.9c0,0,0.2,2.4-1,2.6c0,0-2.9,0.9-3.6,0.2c0,0-0.7-0.9-1.6,0.4c0,0,0.9-1.7,2.8-1.2
				c0,0,2.6,0.7,1.9-1c0,0-0.5-3.5,1.2-4.1c0,0,2.2-1.1,3.9-1.4C-7,11.6-6.5,11.3-6,11c-2.6-0.1-5.3-0.9-6.1-4c0,0-0.4-1.3-1-3.3
				c-1.1-0.6-2.3-1.8-3.5-4c0,0-0.9-3.2-1.6,1.5c0,0-1.2,3.1-2.5,3.2c0,0,1.2-1.8,0.8-2.9c0,0,1.6-4.5,3.3-3.5c0,0,1.5,0.7,2.9,3.1
				c-0.4-1.7-0.8-3.6-1-5.6l-0.8,0c0,0-1.9,0.9-1.8-2.6c0,0-0.8-4,0-6.7c0,0,0.7-2.5-1.8-1.3c0,0-1.2-0.4-1.9,0.1c0,0-2.4,1.4-4-0.3
				c0,0,1.9,0.3,2.5-0.3c0,0,1.5-0.1,1.5-0.8c0,0,2.9-0.7,3.7,0.1c0,0,1.8,0.9,1.1,3.7c0,0-0.8,7.9,0.8,6c0,0,0.2,0,0.4-0.1
				c-0.3-3.9,0.1-7.8,1.9-10.3c-3.5,7.5,1.7,22.5,1.7,22.5c1.3,4.8,7.2,4.2,10.1,3.6c0.1-1.4,0.3-3.2,1-3.9c0,0,0.9,2,0.9,3.6
				c1.2,0.4,8,2.2,10.8-1.3c-1,2.5-3.4,3.3-5.8,3.4c0.5,0.3,1,0.6,1.4,1c1.8,0.2,4.1,1.4,4.1,1.4c1.7,0.7,1.2,4.1,1.2,4.1
				c-0.7,1.7,1.9,1,1.9,1c1.9-0.5,2.8,1.2,2.8,1.2C16.2,18.6,15.6,19.5,15.6,19.5z"/>
			<path class="st31" d="M21-15c-0.7-0.5-1.9-0.1-1.9-0.1c-2.5-1.2-1.8,1.3-1.8,1.3c0.8,2.7,0,6.7,0,6.7c0,3.5-1.8,2.6-1.8,2.6
				l-0.6,0c-0.3,1.9-0.7,3.8-1.1,5.4c1.4-2.3,2.8-2.9,2.8-2.9c1.7-1,3.3,3.5,3.3,3.5c-0.4,1.1,0.8,2.9,0.8,2.9
				c-1.3-0.1-2.5-3.2-2.5-3.2c-0.8-4.7-1.6-1.5-1.6-1.5c-1.2,2.2-2.4,3.4-3.5,4c-0.4,1.4-0.7,2.2-0.7,2.2c-0.2,0.8-0.6,1.4-1,1.9
				c0.1-0.2,0.1-0.4,0.2-0.6c0,0,6-17.4,0.8-24.1c0,0-6.7-9.6-10.9-9.6L-2-26.7c-4.1,0-10.9,9.6-10.9,9.6C-13-17-13-16.9-13-16.9
				c0.3-0.6,0.6-1.1,0.9-1.6c0,0,6.7-9.6,10.9-9.6l3.6,0.1c4.1,0,10.9,9.6,10.9,9.6c2.1,2.8,2.4,7.3,1.9,11.7c0.1,0,0.2,0,0.2,0
				c1.6,1.9,0.8-6,0.8-6c-0.7-2.9,1.1-3.7,1.1-3.7C18-17,21-16.3,21-16.3c0.1,0.6,1.5,0.8,1.5,0.8c0.7,0.5,2.5,0.3,2.5,0.3
				C23.4-13.6,21-15,21-15z"/>
		</g>
	</g>
</symbol>
<symbol  id="Herbe_1" viewBox="-14.4 -22 28.9 44.1">
	<g>
		<g>
			<path class="st34" d="M-1-18.7c0,0,4.7,15.6-2.1,40.7C9.3-0.3,1.5-13.9-1-18.7z"/>
			<path class="st35" d="M-3.3-15.6c0,0,1.3,11.6-11.1,20.5c10.8-11.4,9-21,10.3-26.9L-3.3-15.6z"/>
			<path class="st36" d="M5.3-17.8c0,0-2.4,11.6,5.6,17C9.3-4.8,6.8-10.2,5.3-17.8z"/>
			<path class="st37" d="M7.7-18.1c0,0-0.2,7.9,4.9,9.7C13.6-7.5,11.1-13,7.7-18.1z"/>
			<path class="st36" d="M-3.7-7c0,0,3.8,7.9-7.1,21.7C-8.1,8.6-4.8,0.8-3.7-7z"/>
		</g>
		<path class="st35" d="M5.2-3.7c0,0,0.5,19.4,9.3,22.3C9.4,10.3,8.1,5.8,5.2-3.7z"/>
	</g>
</symbol>
<symbol  id="Herbe_3" viewBox="-17.5 -30.2 35 60.4">
	<g>
		<g>
			<path class="st0" d="M-7.8,30.2c3.3-4.7,7.2-9.1,10-14.4c7.2-13,5.8-27.4,2.2-41.6"/>
			<path class="st38" d="M-7.9,30.2C-5,26.1-2.6,22.1,0,17.8c2.6-4.3,5-8.6,5.9-13.6c1.8-9.8-1-22.7-3.5-32.3
				c-0.3-1.1,2.5,0.8,2.8,2C6.1-22.2,9.6-9.3,6.9,3.6C4.8,13.9-1.8,21.9-7.9,30.2C-7.8,30.2-7.9,30.2-7.9,30.2L-7.9,30.2z"/>
		</g>
		<g>
			<path class="st0" d="M-3.4-25.3c5.3,24.6-13.5,11.7-13.9,38"/>
			<path class="st39" d="M-2.2-25.4c1.5,7,1.7,13.7-4.2,18.5c-2.2,1.8-4.7,2.8-6.5,5.1c-3.2,4-3.9,9.4-4.1,14.4
				c-0.1,4.4-0.5,4.4-0.5,0.1c0-4.4,0.5-8.9,2.4-13c1.2-2.6,3.3-4.6,5.3-6.6c1.8-1.8,3.9-3.1,5.2-5.4c2-3.8,1-8.9,0.2-12.9
				C-4.9-26.7-4.2-28.6-2.2-25.4L-2.2-25.4z"/>
		</g>
		<g>
			<path class="st0" d="M-6.8-26.6C-9-12.7-12,7.8-6.1,20.5"/>
			<path class="st40" d="M-6.2-24.8C-7.4-17.1-8.3-11.1-9-3.3c-0.7,7.9-0.3,16.4,3,23.7c0.1,0.2-0.2,0.3-0.3,0.1
				C-9.6,13.3-10,5.2-10-2.6c0-8.1,1.3-16.2,2.5-24.2c0.1-0.9,2.1-0.7,2,0.1L-6.2-24.8z"/>
		</g>
		<g>
			<path class="st0" d="M10.6-25.9C4.7-9.6,14.9-2,17.3,3.3"/>
			<path class="st40" d="M11.2-25.7c-2.1,6.1-2.5,12.8,0.2,18.8c1.6,3.6,4.4,6.5,6.1,10c0.1,0.2-0.2,0.3-0.3,0.1
				c-1.9-3.8-5.1-6.9-7-10.8c-3-6.1-3.2-11.4-1-17.7C9.6-26,11.5-26.5,11.2-25.7L11.2-25.7z"/>
		</g>
		<g>
			<path class="st0" d="M-0.6-28.6c-2.2,13.7,8.4,18,1.4,41"/>
			<path class="st40" d="M1-27.9c-0.9,6.1,0.3,10.7,1.6,16.5C4.4-3.3,3,6.9,0.6,14.7c-0.1,0.2,0.1-2.1,0.1-2.3
				C3.1,4.2,3.8-3.8,1.2-12C-0.6-17.5-1.4-22.2-0.5-28c0.1-0.9,0.4-2.8,0.3-2L1-27.9z"/>
		</g>
	</g>
</symbol>
<symbol  id="Herbe_7" viewBox="-54.4 -37.7 108.8 75.4">
	<g>
		<g>
			<g>
				<g>
					<path class="st41" d="M-31.9,25.3c0,0,6.5-1,6.9-6.2C-24,20.4-24,27-31.9,25.3z"/>
					<path class="st42" d="M-20.4,19.7c0,0,6.3-2.4,8.2-5.3C-15.5,15.1-18.9,17.3-20.4,19.7z"/>
					<path class="st43" d="M18.3-16.1c0,0-4.3,4-7,1.9C13.2-15.4,16.2-17.1,18.3-16.1z"/>
					<path class="st42" d="M-34.9,31.4c0,0-0.8-4.7-3.6-6.8C-38,28-37.2,29.8-34.9,31.4z"/>
					<path class="st42" d="M-40.3-5.7c0,0-5.2,1.2-7.6,4.8C-44.1-1.6-42.1-2.7-40.3-5.7z"/>
					<path class="st43" d="M-42.8-20.8c0,0,3.7,4.6,1.3,7.2C-42.5-15.6-44-18.7-42.8-20.8z"/>
					<path class="st42" d="M-16.9-11.1c0,0,1.4-6.6,0-9.8C-18.1-17.6-18.1-13.6-16.9-11.1z"/>
					<path class="st44" d="M-46-9.9c0,0-3.4-5.6-8.4-3.9C-53.6-15.3-47.6-17.8-46-9.9z"/>
					<path class="st44" d="M-6.3-30.8c0,0-6.6,0.2-7.5,5.4C-14.7-26.9-13.9-33.3-6.3-30.8z"/>
					<path class="st44" d="M-29,0.9c0,0-3.4-5.7-8.4-3.9C-36.6-4.5-30.6-7-29,0.9z"/>
					<path class="st44" d="M33.6,16c0,0-2.5-5.9-1.6-10.8C33.8,7.6,34.5,12.1,33.6,16z"/>
					<path class="st45" d="M-34.4-29.4c0,0,1.4,5.7-1.8,7C-36.3-24.6-36.4-28-34.4-29.4z"/>
					<path class="st44" d="M8.7-15.3c0,0-3.4-5.6-8.4-3.9C1.2-20.6,7.2-23.1,8.7-15.3z"/>
					<path class="st44" d="M8.4-29.5c0,0-1.5-7.7-5.4-8.2C2.8-33.9,6-31,8.4-29.5z"/>
					<path class="st45" d="M-19.3,32.1c0,0-2.4-5.3,0.5-7.3C-18.3,27-17.6,30.4-19.3,32.1z"/>
					<path class="st45" d="M38-11.9c0,0,1.4,5.7-1.8,7C36.1-7.1,36-10.6,38-11.9z"/>
					<path class="st44" d="M26.9-16.1c0,0-1.5-7.7-5.4-8.2C21.3-20.4,24.4-17.5,26.9-16.1z"/>
					<path class="st44" d="M45.8-12c0,0,4-5.1,8.6-6.6C53.2-15.9,49.7-13.2,45.8-12z"/>
					<path class="st44" d="M24.3,3.2c0,0,4-5.1,8.6-6.6C31.7-0.7,28.1,2.1,24.3,3.2z"/>
					<path class="st41" d="M13.3-1.2c0,0-6.6,0.2-7.5,5.4C5,2.8,5.7-3.7,13.3-1.2z"/>
					<path class="st41" d="M-23.4-6.1c0,0-2-3-1-7.9C-22.6-11.6-22.5-10-23.4-6.1z"/>
					<path class="st41" d="M-38.5-8.5c0,0,1.7-5.6,5.2-5.1C-34.4-11.6-36.1-8.6-38.5-8.5z"/>
					<path class="st46" d="M14.6,20.8c0,0-3.2-5.9-6.3-7.5C9.4,16.6,12,19.7,14.6,20.8z"/>
					<path class="st46" d="M-1.4,27.7c0,0,1.3-6.6-0.1-9.8C-2.7,21.1-2.7,25.2-1.4,27.7z"/>
					<path class="st46" d="M-5.8,31.1c0,0-5.3-4.2-8.8-4.4C-12.3,29.3-8.7,31.1-5.8,31.1z"/>
					<path class="st47" d="M3.6,24.4l1.6-2.7l3.1-2C8.3,19.7,7.7,23.5,3.6,24.4z"/>
					<path class="st47" d="M-1.4,37.7l1.5-3.6l2.7-2.9C2.8,31.2,2.8,36.7-1.4,37.7z"/>
					<path class="st46" d="M29.7-4.6c0,0-1.6-4.7-4.7-6.3C26.1-7.7,27.1-5.8,29.7-4.6z"/>
					<path class="st48" d="M5.1-27c0,0-6.2-2.2-9,2.3C-4.1-26.4-1-32.1,5.1-27z"/>
					<path class="st46" d="M-30.8,10.3c0,0-3.2-5.9-6.3-7.5C-36,6.1-33.4,9.1-30.8,10.3z"/>
					<path class="st47" d="M-18.5-23.6c0,0-3.4-5.6-8.4-3.9C-26-29-20-31.5-18.5-23.6z"/>
					<path class="st47" d="M27.4-30.1c0,0-6.2-2.2-9,2.3C18.2-29.5,21.3-35.3,27.4-30.1z"/>
					<path class="st46" d="M12-22.6c0,0,2-3.2,1.7-6.7C11.5-26.5,11.6-25.4,12-22.6z"/>
					<path class="st46" d="M0.8,3.1c0,0-3.2-5.9-6.3-7.5C-4.4-1.1-1.8,2,0.8,3.1z"/>
					<path class="st46" d="M38.3-16.6c0,0-3.2-5.9-6.3-7.5C33.1-20.9,35.7-17.8,38.3-16.6z"/>
					<path class="st47" d="M-4.8-17.3l-3.2-2.3l-2.1-3.3C-10.1-22.9-4.7-21.5-4.8-17.3z"/>
					<path class="st47" d="M-44.5,15.1c0,0-3.4-5.7-8.4-3.9C-52,9.8-46,7.3-44.5,15.1z"/>
					<path class="st47" d="M-4.4-8.1l1.5-3.6l2.7-2.9C-0.3-14.7-0.3-9.1-4.4-8.1z"/>
					<path class="st46" d="M-1,7.6c0,0-4.8,0.9-7.7,2.9C-5.2,11-3.2,9.4-1,7.6z"/>
					<path class="st48" d="M18,35.6c0,0,6.3-2.4,8.2-5.3C22.8,31,19.5,33.2,18,35.6z"/>
					<path class="st48" d="M3.3,7.5c0,0,1.2,6.5-2,8C1.1,13.4,1.3,9,3.3,7.5z"/>
					<path class="st48" d="M7.3,32.6L8.7,29l2.7-2.9C11.4,26.1,11.4,31.6,7.3,32.6z"/>
					<path class="st48" d="M-25.9,6.7c0,0,2.2,6.2,7.4,5.5C-19.6,13.4-26,14.7-25.9,6.7z"/>
					<path class="st48" d="M-13.1-7.9c0,0,6.3-2.4,8.2-5.3C-8.3-12.5-11.7-10.3-13.1-7.9z"/>
					<path class="st48" d="M-14,7.7l1.4-3.6l2.7-2.9C-9.9,1.1-9.9,6.7-14,7.7z"/>
					<path class="st48" d="M14.1,14.2c0,0,0.9-6.6-4.1-8.3C11.6,5.3,17.8,7.1,14.1,14.2z"/>
					<path class="st48" d="M3.3-10.5c0,0,9.3,1.4,9.8,4.8C10.9-6.1,4.1-8.2,3.3-10.5z"/>
					<path class="st48" d="M-30.7-16.3c0,0,6.3-2.4,8.2-5.3C-25.9-20.9-29.2-18.7-30.7-16.3z"/>
					<path class="st48" d="M-38.8,15c0,0-0.6-6.7-2.9-9.4C-41.9,9.1-40.7,12.9-38.8,15z"/>
					<path class="st46" d="M-17.8,5.1c0,0-6.9-1.5-6.8-5C-22.5,0.9-18.2,2.8-17.8,5.1z"/>
					<path class="st48" d="M23.8,8.2l-3.1-2.4l-2.1-3.3C18.6,2.5,24,4,23.8,8.2z"/>
					<path class="st41" d="M20.5-1.8c0,0,0.3-6.7-1.6-9.7C18.2-8.1,18.8-4.1,20.5-1.8z"/>
					<path class="st41" d="M42.5,8.3c0,0-1.5-7.7-5.4-8.2C36.9,4,40,6.9,42.5,8.3z"/>
					<path class="st41" d="M29.8,24.1c0,0,6.5-1,6.9-6.2C37.6,19.2,37.6,25.8,29.8,24.1z"/>
					<path class="st41" d="M-34.1,19c0,0,4.3-1.3,6.2-4.2C-31.3,15.5-32.6,16.6-34.1,19z"/>
					<path class="st41" d="M-12.4,23.7l1.4-3.6l2.7-2.9C-8.3,17.2-8.3,22.8-12.4,23.7z"/>
					<path class="st43" d="M54.2,9.1c0,0-6.5-1-8.4,3.8C45.3,11.4,47.2,5.2,54.2,9.1z"/>
					<path class="st41" d="M-11.2,0c0,0-3.4-5.7-8.4-3.9C-18.8-5.3-12.7-7.8-11.2,0z"/>
					<path class="st42" d="M25.1,11.8c0,0-3.2,3-4.8,7.1C23.9,17.5,24,15.2,25.1,11.8z"/>
					<path class="st43" d="M23.6,24.9c0,0-4.3,4-7,1.9C18.4,25.6,21.4,23.8,23.6,24.9z"/>
				</g>
			</g>
		</g>
	</g>
</symbol>
<g>
	<g>
		<defs>
			<rect id="SVGID_1_" x="62.4" y="547.2" width="28.9" height="44.1"/>
		</defs>
		<clipPath id="SVGID_2_">
			<use xlink:href="#SVGID_1_"  style="overflow:visible;"/>
		</clipPath>
		<g style="clip-path:url(#SVGID_2_);">
			
				<use xlink:href="#Herbe_1"  width="28.9" height="44.1" x="-14.4" y="-22" transform="matrix(1 0 0 -1 76.8108 569.186)" style="overflow:visible;"/>
		</g>
	</g>
	<g>
		<defs>
			<rect id="SVGID_3_" x="30.6" y="496.5" width="28.9" height="44.1"/>
		</defs>
		<clipPath id="SVGID_4_">
			<use xlink:href="#SVGID_3_"  style="overflow:visible;"/>
		</clipPath>
		<g style="clip-path:url(#SVGID_4_);">
			
				<use xlink:href="#Herbe_1"  width="28.9" height="44.1" x="-14.4" y="-22" transform="matrix(1 0 0 -1 45.05 518.4926)" style="overflow:visible;"/>
		</g>
	</g>
	<g>
		<defs>
			<rect id="SVGID_5_" x="92.6" y="509.2" width="28.9" height="44.1"/>
		</defs>
		<clipPath id="SVGID_6_">
			<use xlink:href="#SVGID_5_"  style="overflow:visible;"/>
		</clipPath>
		<g style="clip-path:url(#SVGID_6_);">
			
				<use xlink:href="#Herbe_1"  width="28.9" height="44.1" x="-14.4" y="-22" transform="matrix(1 0 0 -1 107.0514 531.2838)" style="overflow:visible;"/>
		</g>
	</g>
	<g>
		<defs>
			<rect id="SVGID_7_" x="-1.5" y="603.2" width="28.9" height="44.1"/>
		</defs>
		<clipPath id="SVGID_8_">
			<use xlink:href="#SVGID_7_"  style="overflow:visible;"/>
		</clipPath>
		<g style="clip-path:url(#SVGID_8_);">
			
				<use xlink:href="#Herbe_1"  width="28.9" height="44.1" x="-14.4" y="-22" transform="matrix(1 0 0 -1 12.9088 625.2595)" style="overflow:visible;"/>
		</g>
	</g>
	<g>
		<defs>
			<rect id="SVGID_9_" x="-7.1" y="555.7" width="28.9" height="44.1"/>
		</defs>
		<clipPath id="SVGID_10_">
			<use xlink:href="#SVGID_9_"  style="overflow:visible;"/>
		</clipPath>
		<g style="clip-path:url(#SVGID_10_);">
			
				<use xlink:href="#Herbe_1"  width="28.9" height="44.1" x="-14.4" y="-22" transform="matrix(1 0 0 -1 7.3503 577.6852)" style="overflow:visible;"/>
		</g>
	</g>
	<g>
		<defs>
			<rect id="SVGID_11_" x="19.4" y="584.4" width="28.9" height="44.1"/>
		</defs>
		<clipPath id="SVGID_12_">
			<use xlink:href="#SVGID_11_"  style="overflow:visible;"/>
		</clipPath>
		<g style="clip-path:url(#SVGID_12_);">
			
				<use xlink:href="#Herbe_1"  width="28.9" height="44.1" x="-14.4" y="-22" transform="matrix(1 0 0 -1 33.8326 606.4572)" style="overflow:visible;"/>
		</g>
	</g>
	<g>
		<defs>
			<rect id="SVGID_13_" x="15" y="562.4" width="28.9" height="44.1"/>
		</defs>
		<clipPath id="SVGID_14_">
			<use xlink:href="#SVGID_13_"  style="overflow:visible;"/>
		</clipPath>
		<g style="clip-path:url(#SVGID_14_);">
			
				<use xlink:href="#Herbe_1"  width="28.9" height="44.1" x="-14.4" y="-22" transform="matrix(1 0 0 -1 29.4785 584.4757)" style="overflow:visible;"/>
		</g>
	</g>
	<g>
		<defs>
			<rect id="SVGID_15_" x="-10.5" y="577.5" width="28.9" height="44.1"/>
		</defs>
		<clipPath id="SVGID_16_">
			<use xlink:href="#SVGID_15_"  style="overflow:visible;"/>
		</clipPath>
		<g style="clip-path:url(#SVGID_16_);">
			
				<use xlink:href="#Herbe_1"  width="28.9" height="44.1" x="-14.4" y="-22" transform="matrix(1 0 0 -1 3.9429 599.5458)" style="overflow:visible;"/>
		</g>
	</g>
	<g>
		<defs>
			<rect id="SVGID_17_" x="552.2" y="545.3" width="28.9" height="44.1"/>
		</defs>
		<clipPath id="SVGID_18_">
			<use xlink:href="#SVGID_17_"  style="overflow:visible;"/>
		</clipPath>
		<g style="clip-path:url(#SVGID_18_);">
			
				<use xlink:href="#Herbe_1"  width="28.9" height="44.1" x="-14.4" y="-22" transform="matrix(1 0 0 -1 566.6754 567.3628)" style="overflow:visible;"/>
		</g>
	</g>
	<g>
		<defs>
			<rect id="SVGID_19_" x="563.8" y="572.9" width="28.9" height="44.1"/>
		</defs>
		<clipPath id="SVGID_20_">
			<use xlink:href="#SVGID_19_"  style="overflow:visible;"/>
		</clipPath>
		<g style="clip-path:url(#SVGID_20_);">
			
				<use xlink:href="#Herbe_1"  width="28.9" height="44.1" x="-14.4" y="-22" transform="matrix(1 0 0 -1 578.2725 594.9316)" style="overflow:visible;"/>
		</g>
	</g>
	<g>
		<defs>
			<rect id="SVGID_21_" x="536.4" y="584.9" width="28.9" height="44.1"/>
		</defs>
		<clipPath id="SVGID_22_">
			<use xlink:href="#SVGID_21_"  style="overflow:visible;"/>
		</clipPath>
		<g style="clip-path:url(#SVGID_22_);">
			
				<use xlink:href="#Herbe_1"  width="28.9" height="44.1" x="-14.4" y="-22" transform="matrix(1 0 0 -1 550.8504 606.8938)" style="overflow:visible;"/>
		</g>
	</g>
	<g>
		<defs>
			<rect id="SVGID_23_" x="524.8" y="556.8" width="28.9" height="44.1"/>
		</defs>
		<clipPath id="SVGID_24_">
			<use xlink:href="#SVGID_23_"  style="overflow:visible;"/>
		</clipPath>
		<g style="clip-path:url(#SVGID_24_);">
			
				<use xlink:href="#Herbe_1"  width="28.9" height="44.1" x="-14.4" y="-22" transform="matrix(1 0 0 -1 539.2533 578.8043)" style="overflow:visible;"/>
		</g>
	</g>
	<g>
		<defs>
			<rect id="SVGID_25_" x="544.1" y="565.1" width="28.9" height="44.1"/>
		</defs>
		<clipPath id="SVGID_26_">
			<use xlink:href="#SVGID_25_"  style="overflow:visible;"/>
		</clipPath>
		<g style="clip-path:url(#SVGID_26_);">
			
				<use xlink:href="#Herbe_1"  width="28.9" height="44.1" x="-14.4" y="-22" transform="matrix(1 0 0 -1 558.5828 587.183)" style="overflow:visible;"/>
		</g>
	</g>
	<g>
		<defs>
			<rect id="SVGID_27_" x="334.5" y="577.6" width="28.9" height="44.1"/>
		</defs>
		<clipPath id="SVGID_28_">
			<use xlink:href="#SVGID_27_"  style="overflow:visible;"/>
		</clipPath>
		<g style="clip-path:url(#SVGID_28_);">
			
				<use xlink:href="#Herbe_1"  width="28.9" height="44.1" x="-14.4" y="-22" transform="matrix(1 0 0 -1 348.9134 599.6419)" style="overflow:visible;"/>
		</g>
	</g>
	<g>
		<defs>
			<rect id="SVGID_29_" x="538.2" y="386.6" width="28.9" height="44.1"/>
		</defs>
		<clipPath id="SVGID_30_">
			<use xlink:href="#SVGID_29_"  style="overflow:visible;"/>
		</clipPath>
		<g style="clip-path:url(#SVGID_30_);">
			
				<use xlink:href="#Herbe_1"  width="28.9" height="44.1" x="-14.4" y="-22" transform="matrix(1 0 0 -1 552.6172 408.6266)" style="overflow:visible;"/>
		</g>
	</g>
	<g>
		<defs>
			<rect id="SVGID_31_" x="195.6" y="586.5" width="28.9" height="44.1"/>
		</defs>
		<clipPath id="SVGID_32_">
			<use xlink:href="#SVGID_31_"  style="overflow:visible;"/>
		</clipPath>
		<g style="clip-path:url(#SVGID_32_);">
			
				<use xlink:href="#Herbe_1"  width="28.9" height="44.1" x="-14.4" y="-22" transform="matrix(1 0 0 -1 210.0637 608.5304)" style="overflow:visible;"/>
		</g>
	</g>
	<g>
		<defs>
			<rect id="SVGID_33_" x="180.7" y="524.9" width="28.9" height="44.1"/>
		</defs>
		<clipPath id="SVGID_34_">
			<use xlink:href="#SVGID_33_"  style="overflow:visible;"/>
		</clipPath>
		<g style="clip-path:url(#SVGID_34_);">
			
				<use xlink:href="#Herbe_1"  width="28.9" height="44.1" x="-14.4" y="-22" transform="matrix(1 0 0 -1 195.1545 546.9147)" style="overflow:visible;"/>
		</g>
	</g>
</g>
<g>
	<defs>
		<rect id="SVGID_35_" x="-7" y="222.5" width="108.8" height="75.4"/>
	</defs>
	<clipPath id="SVGID_36_">
		<use xlink:href="#SVGID_35_"  style="overflow:visible;"/>
	</clipPath>
	<g style="clip-path:url(#SVGID_36_);">
		
			<use xlink:href="#Herbe_7"  width="108.8" height="75.4" x="-54.4" y="-37.7" transform="matrix(1 0 0 -1 47.4468 260.1876)" style="overflow:visible;"/>
	</g>
</g>
<g>
	<g>
		<defs>
			<rect id="SVGID_37_" x="457.2" y="637.6" width="28.9" height="44.1"/>
		</defs>
		<clipPath id="SVGID_38_">
			<use xlink:href="#SVGID_37_"  style="overflow:visible;"/>
		</clipPath>
		<g style="clip-path:url(#SVGID_38_);">
			
				<use xlink:href="#Herbe_1"  width="28.9" height="44.1" x="-14.4" y="-22" transform="matrix(1 0 0 -1 471.6172 659.5934)" style="overflow:visible;"/>
		</g>
	</g>
	<g>
		<defs>
			<rect id="SVGID_39_" x="474.8" y="651" width="28.9" height="44.1"/>
		</defs>
		<clipPath id="SVGID_40_">
			<use xlink:href="#SVGID_39_"  style="overflow:visible;"/>
		</clipPath>
		<g style="clip-path:url(#SVGID_40_);">
			
				<use xlink:href="#Herbe_1"  width="28.9" height="44.1" x="-14.4" y="-22" transform="matrix(1 0 0 -1 489.2711 673.0578)" style="overflow:visible;"/>
		</g>
	</g>
	<g>
		<defs>
			<rect id="SVGID_41_" x="461.7" y="608.7" width="28.9" height="44.1"/>
		</defs>
		<clipPath id="SVGID_42_">
			<use xlink:href="#SVGID_41_"  style="overflow:visible;"/>
		</clipPath>
		<g style="clip-path:url(#SVGID_42_);">
			
				<use xlink:href="#Herbe_1"  width="28.9" height="44.1" x="-14.4" y="-22" transform="matrix(1 0 0 -1 476.1826 630.7356)" style="overflow:visible;"/>
		</g>
	</g>
	<g>
		<defs>
			<rect id="SVGID_43_" x="492.4" y="621.8" width="28.9" height="44.1"/>
		</defs>
		<clipPath id="SVGID_44_">
			<use xlink:href="#SVGID_43_"  style="overflow:visible;"/>
		</clipPath>
		<g style="clip-path:url(#SVGID_44_);">
			
				<use xlink:href="#Herbe_1"  width="28.9" height="44.1" x="-14.4" y="-22" transform="matrix(1 0 0 -1 506.8163 643.8365)" style="overflow:visible;"/>
		</g>
	</g>
	<g>
		<defs>
			<rect id="SVGID_45_" x="480.6" y="586.8" width="28.9" height="44.1"/>
		</defs>
		<clipPath id="SVGID_46_">
			<use xlink:href="#SVGID_45_"  style="overflow:visible;"/>
		</clipPath>
		<g style="clip-path:url(#SVGID_46_);">
			
				<use xlink:href="#Herbe_1"  width="28.9" height="44.1" x="-14.4" y="-22" transform="matrix(1 0 0 -1 495.0497 608.8264)" style="overflow:visible;"/>
		</g>
	</g>
	<g>
		<defs>
			<rect id="SVGID_47_" x="512.9" y="607.5" width="28.9" height="44.1"/>
		</defs>
		<clipPath id="SVGID_48_">
			<use xlink:href="#SVGID_47_"  style="overflow:visible;"/>
		</clipPath>
		<g style="clip-path:url(#SVGID_48_);">
			
				<use xlink:href="#Herbe_1"  width="28.9" height="44.1" x="-14.4" y="-22" transform="matrix(1 0 0 -1 527.3815 629.4915)" style="overflow:visible;"/>
		</g>
	</g>
	<g>
		<defs>
			<rect id="SVGID_49_" x="608.8" y="554.2" width="28.9" height="44.1"/>
		</defs>
		<clipPath id="SVGID_50_">
			<use xlink:href="#SVGID_49_"  style="overflow:visible;"/>
		</clipPath>
		<g style="clip-path:url(#SVGID_50_);">
			
				<use xlink:href="#Herbe_1"  width="28.9" height="44.1" x="-14.4" y="-22" transform="matrix(1 0 0 -1 623.2382 576.2805)" style="overflow:visible;"/>
		</g>
	</g>
	<g>
		<defs>
			<rect id="SVGID_51_" x="615.2" y="531.9" width="28.9" height="44.1"/>
		</defs>
		<clipPath id="SVGID_52_">
			<use xlink:href="#SVGID_51_"  style="overflow:visible;"/>
		</clipPath>
		<g style="clip-path:url(#SVGID_52_);">
			
				<use xlink:href="#Herbe_1"  width="28.9" height="44.1" x="-14.4" y="-22" transform="matrix(1 0 0 -1 629.6453 553.9074)" style="overflow:visible;"/>
		</g>
	</g>
	<g>
		<defs>
			<rect id="SVGID_53_" x="612.6" y="507.6" width="28.9" height="44.1"/>
		</defs>
		<clipPath id="SVGID_54_">
			<use xlink:href="#SVGID_53_"  style="overflow:visible;"/>
		</clipPath>
		<g style="clip-path:url(#SVGID_54_);">
			
				<use xlink:href="#Herbe_1"  width="28.9" height="44.1" x="-14.4" y="-22" transform="matrix(1 0 0 -1 627.038 529.639)" style="overflow:visible;"/>
		</g>
	</g>
	<g>
		<defs>
			<rect id="SVGID_55_" x="609.5" y="471.2" width="28.9" height="44.1"/>
		</defs>
		<clipPath id="SVGID_56_">
			<use xlink:href="#SVGID_55_"  style="overflow:visible;"/>
		</clipPath>
		<g style="clip-path:url(#SVGID_56_);">
			
				<use xlink:href="#Herbe_1"  width="28.9" height="44.1" x="-14.4" y="-22" transform="matrix(1 0 0 -1 623.9761 493.2273)" style="overflow:visible;"/>
		</g>
	</g>
	<g>
		<defs>
			<rect id="SVGID_57_" x="624.3" y="490.1" width="28.9" height="44.1"/>
		</defs>
		<clipPath id="SVGID_58_">
			<use xlink:href="#SVGID_57_"  style="overflow:visible;"/>
		</clipPath>
		<g style="clip-path:url(#SVGID_58_);">
			
				<use xlink:href="#Herbe_1"  width="28.9" height="44.1" x="-14.4" y="-22" transform="matrix(1 0 0 -1 638.7288 512.1079)" style="overflow:visible;"/>
		</g>
	</g>
	<g>
		<defs>
			<rect id="SVGID_59_" x="139.9" y="534" width="28.9" height="44.1"/>
		</defs>
		<clipPath id="SVGID_60_">
			<use xlink:href="#SVGID_59_"  style="overflow:visible;"/>
		</clipPath>
		<g style="clip-path:url(#SVGID_60_);">
			
				<use xlink:href="#Herbe_1"  width="28.9" height="44.1" x="-14.4" y="-22" transform="matrix(1 0 0 -1 154.3478 556.0242)" style="overflow:visible;"/>
		</g>
	</g>
	<g>
		<defs>
			<rect id="SVGID_61_" x="144.2" y="509.3" width="28.9" height="44.1"/>
		</defs>
		<clipPath id="SVGID_62_">
			<use xlink:href="#SVGID_61_"  style="overflow:visible;"/>
		</clipPath>
		<g style="clip-path:url(#SVGID_62_);">
			
				<use xlink:href="#Herbe_1"  width="28.9" height="44.1" x="-14.4" y="-22" transform="matrix(1 0 0 -1 158.6912 531.2878)" style="overflow:visible;"/>
		</g>
	</g>
	<g>
		<defs>
			<rect id="SVGID_63_" x="93.5" y="333.6" width="28.9" height="44.1"/>
		</defs>
		<clipPath id="SVGID_64_">
			<use xlink:href="#SVGID_63_"  style="overflow:visible;"/>
		</clipPath>
		<g style="clip-path:url(#SVGID_64_);">
			
				<use xlink:href="#Herbe_1"  width="28.9" height="44.1" x="-14.4" y="-22" transform="matrix(1 0 0 -1 107.9242 355.6814)" style="overflow:visible;"/>
		</g>
	</g>
	<g>
		<defs>
			<rect id="SVGID_65_" x="175.8" y="302.7" width="28.9" height="44.1"/>
		</defs>
		<clipPath id="SVGID_66_">
			<use xlink:href="#SVGID_65_"  style="overflow:visible;"/>
		</clipPath>
		<g style="clip-path:url(#SVGID_66_);">
			
				<use xlink:href="#Herbe_1"  width="28.9" height="44.1" x="-14.4" y="-22" transform="matrix(1 0 0 -1 190.2695 324.7185)" style="overflow:visible;"/>
		</g>
	</g>
	<g>
		<defs>
			<rect id="SVGID_67_" x="187.1" y="324" width="28.9" height="44.1"/>
		</defs>
		<clipPath id="SVGID_68_">
			<use xlink:href="#SVGID_67_"  style="overflow:visible;"/>
		</clipPath>
		<g style="clip-path:url(#SVGID_68_);">
			
				<use xlink:href="#Herbe_1"  width="28.9" height="44.1" x="-14.4" y="-22" transform="matrix(1 0 0 -1 201.5846 346.0065)" style="overflow:visible;"/>
		</g>
	</g>
	<g>
		<defs>
			<rect id="SVGID_69_" x="198.7" y="303.4" width="28.9" height="44.1"/>
		</defs>
		<clipPath id="SVGID_70_">
			<use xlink:href="#SVGID_69_"  style="overflow:visible;"/>
		</clipPath>
		<g style="clip-path:url(#SVGID_70_);">
			
				<use xlink:href="#Herbe_1"  width="28.9" height="44.1" x="-14.4" y="-22" transform="matrix(1 0 0 -1 213.1651 325.3974)" style="overflow:visible;"/>
		</g>
	</g>
	<g>
		<defs>
			<rect id="SVGID_71_" x="-43.7" y="328" width="28.9" height="44.1"/>
		</defs>
		<clipPath id="SVGID_72_">
			<use xlink:href="#SVGID_71_"  style="overflow:visible;"/>
		</clipPath>
		<g style="clip-path:url(#SVGID_72_);">
			
				<use xlink:href="#Herbe_1"  width="28.9" height="44.1" x="-14.4" y="-22" transform="matrix(1 0 0 -1 -29.2446 350.0248)" style="overflow:visible;"/>
		</g>
	</g>
	<g>
		<defs>
			<rect id="SVGID_73_" x="-49.5" y="350.7" width="28.9" height="44.1"/>
		</defs>
		<clipPath id="SVGID_74_">
			<use xlink:href="#SVGID_73_"  style="overflow:visible;"/>
		</clipPath>
		<g style="clip-path:url(#SVGID_74_);">
			
				<use xlink:href="#Herbe_1"  width="28.9" height="44.1" x="-14.4" y="-22" transform="matrix(1 0 0 -1 -35.0613 372.7311)" style="overflow:visible;"/>
		</g>
	</g>
	<g>
		<defs>
			<rect id="SVGID_75_" x="-19.1" y="325.2" width="28.9" height="44.1"/>
		</defs>
		<clipPath id="SVGID_76_">
			<use xlink:href="#SVGID_75_"  style="overflow:visible;"/>
		</clipPath>
		<g style="clip-path:url(#SVGID_76_);">
			
				<use xlink:href="#Herbe_1"  width="28.9" height="44.1" x="-14.4" y="-22" transform="matrix(1 0 0 -1 -4.6308 347.2202)" style="overflow:visible;"/>
		</g>
	</g>
	<g>
		<defs>
			<rect id="SVGID_77_" x="-24.9" y="347.4" width="28.9" height="44.1"/>
		</defs>
		<clipPath id="SVGID_78_">
			<use xlink:href="#SVGID_77_"  style="overflow:visible;"/>
		</clipPath>
		<g style="clip-path:url(#SVGID_78_);">
			
				<use xlink:href="#Herbe_1"  width="28.9" height="44.1" x="-14.4" y="-22" transform="matrix(1 0 0 -1 -10.4533 369.4256)" style="overflow:visible;"/>
		</g>
	</g>
	<g>
		<defs>
			<rect id="SVGID_79_" x="270" y="551.4" width="35" height="60.4"/>
		</defs>
		<clipPath id="SVGID_80_">
			<use xlink:href="#SVGID_79_"  style="overflow:visible;"/>
		</clipPath>
		<g style="clip-path:url(#SVGID_80_);">
			
				<use xlink:href="#Herbe_3"  width="35" height="60.4" x="-17.5" y="-30.2" transform="matrix(1 0 0 -1 287.4764 582.2465)" style="overflow:visible;"/>
		</g>
	</g>
	<g>
		<defs>
			<rect id="SVGID_81_" x="292" y="536.6" width="35" height="60.4"/>
		</defs>
		<clipPath id="SVGID_82_">
			<use xlink:href="#SVGID_81_"  style="overflow:visible;"/>
		</clipPath>
		<g style="clip-path:url(#SVGID_82_);">
			
				<use xlink:href="#Herbe_3"  width="35" height="60.4" x="-17.5" y="-30.2" transform="matrix(1 0 0 -1 309.5074 567.4316)" style="overflow:visible;"/>
		</g>
	</g>
	<g>
		<defs>
			<rect id="SVGID_83_" x="265.2" y="615" width="35" height="60.4"/>
		</defs>
		<clipPath id="SVGID_84_">
			<use xlink:href="#SVGID_83_"  style="overflow:visible;"/>
		</clipPath>
		<g style="clip-path:url(#SVGID_84_);">
			
				<use xlink:href="#Herbe_3"  width="35" height="60.4" x="-17.5" y="-30.2" transform="matrix(1 0 0 -1 282.6447 645.8439)" style="overflow:visible;"/>
		</g>
	</g>
	<g>
		<defs>
			<rect id="SVGID_85_" x="265.7" y="588" width="35" height="60.4"/>
		</defs>
		<clipPath id="SVGID_86_">
			<use xlink:href="#SVGID_85_"  style="overflow:visible;"/>
		</clipPath>
		<g style="clip-path:url(#SVGID_86_);">
			
				<use xlink:href="#Herbe_3"  width="35" height="60.4" x="-17.5" y="-30.2" transform="matrix(1 0 0 -1 283.1995 618.8931)" style="overflow:visible;"/>
		</g>
	</g>
	<g>
		<defs>
			<rect id="SVGID_87_" x="285.1" y="570.7" width="35" height="60.4"/>
		</defs>
		<clipPath id="SVGID_88_">
			<use xlink:href="#SVGID_87_"  style="overflow:visible;"/>
		</clipPath>
		<g style="clip-path:url(#SVGID_88_);">
			
				<use xlink:href="#Herbe_3"  width="35" height="60.4" x="-17.5" y="-30.2" transform="matrix(1 0 0 -1 302.6138 601.5932)" style="overflow:visible;"/>
		</g>
	</g>
	<g>
		<defs>
			<rect id="SVGID_89_" x="401.4" y="573.8" width="35" height="60.4"/>
		</defs>
		<clipPath id="SVGID_90_">
			<use xlink:href="#SVGID_89_"  style="overflow:visible;"/>
		</clipPath>
		<g style="clip-path:url(#SVGID_90_);">
			
				<use xlink:href="#Herbe_3"  width="35" height="60.4" x="-17.5" y="-30.2" transform="matrix(1 0 0 -1 418.9281 604.6428)" style="overflow:visible;"/>
		</g>
	</g>
	<g>
		<defs>
			
				<rect id="SVGID_91_" x="145.9" y="531.7" transform="matrix(0.9545 -0.2981 0.2981 0.9545 -160.6487 85.607)" width="108.8" height="75.4"/>
		</defs>
		<clipPath id="SVGID_92_">
			<use xlink:href="#SVGID_91_"  style="overflow:visible;"/>
		</clipPath>
		<g transform="matrix(1 0 0 1 -1.525879e-05 0)" style="clip-path:url(#SVGID_92_);">
			
				<use xlink:href="#Herbe_7"  width="108.8" height="75.4" x="-54.4" y="-37.7" transform="matrix(0.9545 -0.2981 -0.2981 -0.9545 200.313 569.443)" style="overflow:visible;"/>
		</g>
	</g>
	<g>
		<defs>
			<rect id="SVGID_93_" x="-20.8" y="415" width="108.8" height="75.4"/>
		</defs>
		<clipPath id="SVGID_94_">
			<use xlink:href="#SVGID_93_"  style="overflow:visible;"/>
		</clipPath>
		<g style="clip-path:url(#SVGID_94_);">
			
				<use xlink:href="#Herbe_7"  width="108.8" height="75.4" x="-54.4" y="-37.7" transform="matrix(1 0 0 -1 33.567 452.674)" style="overflow:visible;"/>
		</g>
	</g>
	<g>
		<defs>
			
				<rect id="SVGID_95_" x="461.9" y="416.4" transform="matrix(0.9841 -0.1778 0.1778 0.9841 -77.8661 108.4747)" width="208.8" height="144.7"/>
		</defs>
		<clipPath id="SVGID_96_">
			<use xlink:href="#SVGID_95_"  style="overflow:visible;"/>
		</clipPath>
		<g transform="matrix(1 1.490116e-08 -1.490116e-08 1 0 -6.103516e-05)" style="clip-path:url(#SVGID_96_);">
			
				<use xlink:href="#Herbe_7"  width="108.8" height="75.4" x="-54.4" y="-37.7" transform="matrix(1.888 -0.3411 -0.3411 -1.888 566.338 488.7175)" style="overflow:visible;"/>
		</g>
	</g>
	<g>
		<defs>
			
				<rect id="SVGID_97_" x="273.9" y="364.1" transform="matrix(0.9221 -0.3869 0.3869 0.9221 -172.6641 257.4909)" width="558.8" height="387.2"/>
		</defs>
		<clipPath id="SVGID_98_">
			<use xlink:href="#SVGID_97_"  style="overflow:visible;"/>
		</clipPath>
		<g transform="matrix(1 -2.980232e-08 2.980232e-08 1 0 0)" style="clip-path:url(#SVGID_98_);">
			
				<use xlink:href="#Herbe_7"  width="108.8" height="75.4" x="-54.4" y="-37.7" transform="matrix(4.735 -1.9866 -1.9866 -4.735 553.3035 557.6619)" style="overflow:visible;"/>
		</g>
	</g>
	<g>
		<defs>
			<rect id="SVGID_99_" x="455.2" y="431.3" width="134.7" height="93.3"/>
		</defs>
		<clipPath id="SVGID_100_">
			<use xlink:href="#SVGID_99_"  style="overflow:visible;"/>
		</clipPath>
		<g style="clip-path:url(#SVGID_100_);">
			
				<use xlink:href="#Herbe_7"  width="108.8" height="75.4" x="-54.4" y="-37.7" transform="matrix(1.238 0 0 -1.238 522.6014 477.9442)" style="overflow:visible;"/>
		</g>
	</g>
	<g>
		<defs>
			
				<rect id="SVGID_101_" x="420.4" y="460.4" transform="matrix(0.981 -0.1938 0.1938 0.981 -90.6411 107.0376)" width="162.5" height="112.6"/>
		</defs>
		<clipPath id="SVGID_102_">
			<use xlink:href="#SVGID_101_"  style="overflow:visible;"/>
		</clipPath>
		<g style="clip-path:url(#SVGID_102_);">
			
				<use xlink:href="#Herbe_7"  width="108.8" height="75.4" x="-54.4" y="-37.7" transform="matrix(1.4647 -0.2894 -0.2894 -1.4647 501.6505 516.7026)" style="overflow:visible;"/>
		</g>
	</g>
	<g>
		<defs>
			
				<rect id="SVGID_103_" x="298" y="655.2" transform="matrix(0.888 -0.4599 0.4599 0.888 -279.1925 239.6912)" width="108.8" height="75.4"/>
		</defs>
		<clipPath id="SVGID_104_">
			<use xlink:href="#SVGID_103_"  style="overflow:visible;"/>
		</clipPath>
		<g style="clip-path:url(#SVGID_104_);">
			
				<use xlink:href="#Herbe_7"  width="108.8" height="75.4" x="-54.4" y="-37.7" transform="matrix(0.888 -0.4599 -0.4599 -0.888 352.4056 692.9297)" style="overflow:visible;"/>
		</g>
	</g>
	<g>
		<defs>
			
				<rect id="SVGID_105_" x="322.2" y="628.9" transform="matrix(0.9163 -0.4004 0.4004 0.9163 -235.406 206.5887)" width="108.8" height="75.4"/>
		</defs>
		<clipPath id="SVGID_106_">
			<use xlink:href="#SVGID_105_"  style="overflow:visible;"/>
		</clipPath>
		<g style="clip-path:url(#SVGID_106_);">
			
				<use xlink:href="#Herbe_7"  width="108.8" height="75.4" x="-54.4" y="-37.7" transform="matrix(0.9163 -0.4004 -0.4004 -0.9163 376.6505 666.6057)" style="overflow:visible;"/>
		</g>
	</g>
	<g>
		<defs>
			
				<rect id="SVGID_107_" x="299.7" y="554.5" transform="matrix(0.9521 -0.3058 0.3058 0.9521 -164.1413 136.67)" width="108.8" height="75.4"/>
		</defs>
		<clipPath id="SVGID_108_">
			<use xlink:href="#SVGID_107_"  style="overflow:visible;"/>
		</clipPath>
		<g style="clip-path:url(#SVGID_108_);">
			
				<use xlink:href="#Herbe_7"  width="108.8" height="75.4" x="-54.4" y="-37.7" transform="matrix(0.9521 -0.3058 -0.3058 -0.9521 354.1526 592.2411)" style="overflow:visible;"/>
		</g>
	</g>
	<g>
		<defs>
			
				<rect id="SVGID_109_" x="282.2" y="596.5" transform="matrix(0.9081 -0.4188 0.4188 0.9081 -234.6713 199.2778)" width="108.8" height="75.4"/>
		</defs>
		<clipPath id="SVGID_110_">
			<use xlink:href="#SVGID_109_"  style="overflow:visible;"/>
		</clipPath>
		<g style="clip-path:url(#SVGID_110_);">
			
				<use xlink:href="#Herbe_7"  width="108.8" height="75.4" x="-54.4" y="-37.7" transform="matrix(0.9081 -0.4188 -0.4188 -0.9081 336.6351 634.2389)" style="overflow:visible;"/>
		</g>
	</g>
	<g>
		<defs>
			
				<rect id="SVGID_111_" x="269.8" y="632.4" transform="matrix(0.9103 -0.4139 0.4139 0.9103 -248.2926 194.3049)" width="108.8" height="75.4"/>
		</defs>
		<clipPath id="SVGID_112_">
			<use xlink:href="#SVGID_111_"  style="overflow:visible;"/>
		</clipPath>
		<g transform="matrix(1 0 0 1 0 6.103516e-05)" style="clip-path:url(#SVGID_112_);">
			
				<use xlink:href="#Herbe_7"  width="108.8" height="75.4" x="-54.4" y="-37.7" transform="matrix(0.9103 -0.4139 -0.4139 -0.9103 324.2431 670.127)" style="overflow:visible;"/>
		</g>
	</g>
	<g>
		<defs>
			
				<rect id="SVGID_113_" x="316.8" y="589.5" transform="matrix(0.889 -0.4579 0.4579 0.889 -246.0109 239.6055)" width="108.8" height="75.4"/>
		</defs>
		<clipPath id="SVGID_114_">
			<use xlink:href="#SVGID_113_"  style="overflow:visible;"/>
		</clipPath>
		<g transform="matrix(1 0 0 1 3.051758e-05 0)" style="clip-path:url(#SVGID_114_);">
			
				<use xlink:href="#Herbe_7"  width="108.8" height="75.4" x="-54.4" y="-37.7" transform="matrix(0.889 -0.4579 -0.4579 -0.889 371.2225 627.2431)" style="overflow:visible;"/>
		</g>
	</g>
	<g>
		<defs>
			
				<rect id="SVGID_115_" x="331.3" y="327.5" transform="matrix(8.117018e-03 -1 1 8.117018e-03 -15.9008 747.8516)" width="75.4" height="108.8"/>
		</defs>
		<clipPath id="SVGID_116_">
			<use xlink:href="#SVGID_115_"  style="overflow:visible;"/>
		</clipPath>
		<g style="clip-path:url(#SVGID_116_);">
			
				<use xlink:href="#Herbe_7"  width="108.8" height="75.4" x="-54.4" y="-37.7" transform="matrix(1 8.117286e-03 8.117286e-03 -1 369.023 381.941)" style="overflow:visible;"/>
		</g>
	</g>
	<g>
		<defs>
			
				<rect id="SVGID_117_" x="297.1" y="318.6" transform="matrix(2.380040e-02 -0.9997 0.9997 2.380040e-02 -46.0946 698.8203)" width="75.4" height="108.8"/>
		</defs>
		<clipPath id="SVGID_118_">
			<use xlink:href="#SVGID_117_"  style="overflow:visible;"/>
		</clipPath>
		<g style="clip-path:url(#SVGID_118_);">
			
				<use xlink:href="#Herbe_7"  width="108.8" height="75.4" x="-54.4" y="-37.7" transform="matrix(0.9997 2.380000e-02 2.380000e-02 -0.9997 334.7803 373.0127)" style="overflow:visible;"/>
		</g>
	</g>
	<g>
		<defs>
			<rect id="SVGID_119_" x="288.7" y="371.6" width="108.8" height="75.4"/>
		</defs>
		<clipPath id="SVGID_120_">
			<use xlink:href="#SVGID_119_"  style="overflow:visible;"/>
		</clipPath>
		<g style="clip-path:url(#SVGID_120_);">
			
				<use xlink:href="#Herbe_7"  width="108.8" height="75.4" x="-54.4" y="-37.7" transform="matrix(1 0 0 -1 343.1039 409.2788)" style="overflow:visible;"/>
		</g>
	</g>
	<g>
		<defs>
			<rect id="SVGID_121_" x="422.5" y="303.6" width="108.8" height="75.4"/>
		</defs>
		<clipPath id="SVGID_122_">
			<use xlink:href="#SVGID_121_"  style="overflow:visible;"/>
		</clipPath>
		<g style="clip-path:url(#SVGID_122_);">
			
				<use xlink:href="#Herbe_7"  width="108.8" height="75.4" x="-54.4" y="-37.7" transform="matrix(1 0 0 -1 476.8734 341.2599)" style="overflow:visible;"/>
		</g>
	</g>
	<g>
		<defs>
			<rect id="SVGID_123_" x="64.9" y="394" width="108.8" height="75.4"/>
		</defs>
		<clipPath id="SVGID_124_">
			<use xlink:href="#SVGID_123_"  style="overflow:visible;"/>
		</clipPath>
		<g style="clip-path:url(#SVGID_124_);">
			
				<use xlink:href="#Herbe_7"  width="108.8" height="75.4" x="-54.4" y="-37.7" transform="matrix(1 0 0 -1 119.2788 431.7256)" style="overflow:visible;"/>
		</g>
	</g>
	<g>
		<defs>
			
				<rect id="SVGID_125_" x="156.2" y="579.7" transform="matrix(0.9539 -0.3 0.3 0.9539 -175.5344 91.6209)" width="108.8" height="75.4"/>
		</defs>
		<clipPath id="SVGID_126_">
			<use xlink:href="#SVGID_125_"  style="overflow:visible;"/>
		</clipPath>
		<g transform="matrix(1 -2.980232e-08 2.980232e-08 1 0 0)" style="clip-path:url(#SVGID_126_);">
			
				<use xlink:href="#Herbe_7"  width="108.8" height="75.4" x="-54.4" y="-37.7" transform="matrix(0.9539 -0.3 -0.3 -0.9539 210.5904 617.4272)" style="overflow:visible;"/>
		</g>
	</g>
	<g>
		<defs>
			<rect id="SVGID_127_" x="-89.9" y="557.2" width="35" height="60.4"/>
		</defs>
		<clipPath id="SVGID_128_">
			<use xlink:href="#SVGID_127_"  style="overflow:visible;"/>
		</clipPath>
		<g style="clip-path:url(#SVGID_128_);">
			
				<use xlink:href="#Herbe_3"  width="35" height="60.4" x="-17.5" y="-30.2" transform="matrix(1 0 0 -1 -72.369 588.071)" style="overflow:visible;"/>
		</g>
	</g>
	<g>
		<defs>
			<rect id="SVGID_129_" x="-84.6" y="587.3" width="38.8" height="67"/>
		</defs>
		<clipPath id="SVGID_130_">
			<use xlink:href="#SVGID_129_"  style="overflow:visible;"/>
		</clipPath>
		<g style="clip-path:url(#SVGID_130_);">
			
				<use xlink:href="#Herbe_3"  width="35" height="60.4" x="-17.5" y="-30.2" transform="matrix(1.1079 0 0 -1.1079 -65.2232 621.4854)" style="overflow:visible;"/>
		</g>
	</g>
	<g>
		<defs>
			<rect id="SVGID_131_" x="-49.2" y="563.9" width="86.5" height="149.4"/>
		</defs>
		<clipPath id="SVGID_132_">
			<use xlink:href="#SVGID_131_"  style="overflow:visible;"/>
		</clipPath>
		<g style="clip-path:url(#SVGID_132_);">
			
				<use xlink:href="#Herbe_3"  width="35" height="60.4" x="-17.5" y="-30.2" transform="matrix(2.4728 0 0 -2.4728 -5.9212 640.2366)" style="overflow:visible;"/>
		</g>
	</g>
	<g>
		<defs>
			<rect id="SVGID_133_" x="-48.3" y="507.7" width="35.6" height="61.5"/>
		</defs>
		<clipPath id="SVGID_134_">
			<use xlink:href="#SVGID_133_"  style="overflow:visible;"/>
		</clipPath>
		<g style="clip-path:url(#SVGID_134_);">
			
				<use xlink:href="#_x12_1784884409728_808473216_51"  width="35" height="60.4" x="-17.5" y="-30.2" transform="matrix(1.0175 0 0 -1.0175 -30.5034 539.1302)" style="overflow:visible;"/>
		</g>
	</g>
	<g>
		<defs>
			<rect id="SVGID_135_" x="-58.2" y="551.4" width="63.2" height="109.2"/>
		</defs>
		<clipPath id="SVGID_136_">
			<use xlink:href="#SVGID_135_"  style="overflow:visible;"/>
		</clipPath>
		<g style="clip-path:url(#SVGID_136_);">
			
				<use xlink:href="#_x12_1784884409728_808539008_2"  width="35" height="60.4" x="-17.5" y="-30.2" transform="matrix(1.8065 0 0 -1.8065 -26.6424 607.2039)" style="overflow:visible;"/>
		</g>
	</g>
	<g>
		<defs>
			<rect id="SVGID_137_" x="-60.3" y="526.7" width="44.5" height="76.9"/>
		</defs>
		<clipPath id="SVGID_138_">
			<use xlink:href="#SVGID_137_"  style="overflow:visible;"/>
		</clipPath>
		<g style="clip-path:url(#SVGID_138_);">
			
				<use xlink:href="#_x12_1784884409728_791696256_21"  width="35" height="60.4" x="-17.5" y="-30.2" transform="matrix(1.2718 0 0 -1.2718 -38.0347 565.9357)" style="overflow:visible;"/>
		</g>
	</g>
	<g>
		<defs>
			<rect id="SVGID_139_" x="-39.2" y="520.6" width="67.3" height="116.2"/>
		</defs>
		<clipPath id="SVGID_140_">
			<use xlink:href="#SVGID_139_"  style="overflow:visible;"/>
		</clipPath>
		<g style="clip-path:url(#SVGID_140_);">
			
				<use xlink:href="#_x12_1784884409728_808539008_95"  width="35" height="60.4" x="-17.5" y="-30.2" transform="matrix(1.9235 0 0 -1.9235 -5.524 580.0179)" style="overflow:visible;"/>
		</g>
	</g>
	<g>
		<defs>
			<rect id="SVGID_141_" x="-20.1" y="500.7" width="39.6" height="68.4"/>
		</defs>
		<clipPath id="SVGID_142_">
			<use xlink:href="#SVGID_141_"  style="overflow:visible;"/>
		</clipPath>
		<g style="clip-path:url(#SVGID_142_);">
			
				<use xlink:href="#_x12_1784884409728_808539008_97"  width="35" height="60.4" x="-17.5" y="-30.2" transform="matrix(1.1312 0 0 -1.1312 -0.3211 535.6619)" style="overflow:visible;"/>
		</g>
	</g>
	<g>
		<defs>
			<rect id="SVGID_143_" x="-11.9" y="527.9" width="120" height="207.1"/>
		</defs>
		<clipPath id="SVGID_144_">
			<use xlink:href="#SVGID_143_"  style="overflow:visible;"/>
		</clipPath>
		<g style="clip-path:url(#SVGID_144_);">
			
				<use xlink:href="#_x12_1784884409728_808538752_88"  width="35" height="60.4" x="-17.5" y="-30.2" transform="matrix(3.4275 0 0 -3.4275 48.0315 633.6872)" style="overflow:visible;"/>
		</g>
	</g>
	<g>
		<defs>
			<rect id="SVGID_145_" x="45.3" y="496.3" width="39.4" height="68.1"/>
		</defs>
		<clipPath id="SVGID_146_">
			<use xlink:href="#SVGID_145_"  style="overflow:visible;"/>
		</clipPath>
		<g style="clip-path:url(#SVGID_146_);">
			
				<use xlink:href="#Herbe_3"  width="35" height="60.4" x="-17.5" y="-30.2" transform="matrix(1.127 0 0 -1.127 64.9745 531.1052)" style="overflow:visible;"/>
		</g>
	</g>
	<g>
		<defs>
			<rect id="SVGID_147_" x="42.4" y="534.6" width="75.7" height="130.7"/>
		</defs>
		<clipPath id="SVGID_148_">
			<use xlink:href="#SVGID_147_"  style="overflow:visible;"/>
		</clipPath>
		<g style="clip-path:url(#SVGID_148_);">
			
				<use xlink:href="#_x12_1784884409728_808539008_99"  width="35" height="60.4" x="-17.5" y="-30.2" transform="matrix(2.1623 0 0 -2.1623 80.1547 601.3867)" style="overflow:visible;"/>
		</g>
	</g>
	<g>
		<defs>
			<rect id="SVGID_149_" x="1.3" y="513.6" width="79.6" height="137.5"/>
		</defs>
		<clipPath id="SVGID_150_">
			<use xlink:href="#SVGID_149_"  style="overflow:visible;"/>
		</clipPath>
		<g style="clip-path:url(#SVGID_150_);">
			
				<use xlink:href="#_x12_1784884409728_791696256_99"  width="35" height="60.4" x="-17.5" y="-30.2" transform="matrix(2.275 0 0 -2.275 41.0368 583.8002)" style="overflow:visible;"/>
		</g>
	</g>
	<g>
		<defs>
			<rect id="SVGID_151_" x="9.4" y="501.7" width="52.5" height="90.7"/>
		</defs>
		<clipPath id="SVGID_152_">
			<use xlink:href="#SVGID_151_"  style="overflow:visible;"/>
		</clipPath>
		<g style="clip-path:url(#SVGID_152_);">
			
				<use xlink:href="#_x12_1784884409728_791761792_87"  width="35" height="60.4" x="-17.5" y="-30.2" transform="matrix(1.5002 0 0 -1.5002 35.5841 548.0202)" style="overflow:visible;"/>
		</g>
	</g>
	<g>
		<defs>
			<rect id="SVGID_153_" x="15.5" y="487.9" width="36.4" height="62.8"/>
		</defs>
		<clipPath id="SVGID_154_">
			<use xlink:href="#SVGID_153_"  style="overflow:visible;"/>
		</clipPath>
		<g style="clip-path:url(#SVGID_154_);">
			
				<use xlink:href="#_x12_1784884409728_808539008_36"  width="35" height="60.4" x="-17.5" y="-30.2" transform="matrix(1.0391 0 0 -1.0391 33.7101 519.927)" style="overflow:visible;"/>
		</g>
	</g>
	<g>
		<defs>
			<rect id="SVGID_155_" x="49.5" y="513" width="53.8" height="92.9"/>
		</defs>
		<clipPath id="SVGID_156_">
			<use xlink:href="#SVGID_155_"  style="overflow:visible;"/>
		</clipPath>
		<g transform="matrix(1 0 0 1 0 0)" style="clip-path:url(#SVGID_156_);">
			
				<use xlink:href="#_x12_1784884409728_808473216_93"  width="35" height="60.4" x="-17.5" y="-30.2" transform="matrix(1.5371 0 0 -1.5371 76.343 560.4885)" style="overflow:visible;"/>
		</g>
	</g>
</g>
<g class="st49">
	<path class="st50" d="M210.4,478.8L210.4,478.8C210.4,478.8,210.4,478.8,210.4,478.8z"/>
	<path class="st51" d="M218.3,479.9l-0.9,0.1h-4.2C214.2,480,217.6,479,218.3,479.9z"/>
	
		<image style="overflow:visible;enable-background:new    ;" width="24" height="44" xlink:href="A1D8BFD1.png"  transform="matrix(1 0 0 1 188 476.8898)">
	</image>
	
		<image style="overflow:visible;enable-background:new    ;" width="27" height="44" xlink:href="A1D8BFD3.png"  transform="matrix(1 0 0 1 209 479.8898)">
	</image>
	<path class="st52" d="M210.8,498.1c0,0.2-0.1,0.4-0.3,0.4s-0.4-0.1-0.4-0.4c0-0.2,0.1-0.4,0.4-0.4
		C210.7,497.8,210.8,498,210.8,498.1z"/>
	<path class="st0" d="M211.2,479.2c0.7,0.5,1.4,0.8,1.9,0.8L211.2,479.2z M209.1,513.5c-0.2-0.1-0.5-0.2-0.7-0.2
		C208.5,513.3,208.8,513.4,209.1,513.5z"/>
	<g>
		
			<radialGradient id="SVGID_157_" cx="211.7681" cy="344.6316" r="15.9427" fx="207.5716" fy="345.2086" gradientTransform="matrix(0.5 -0.866 -0.433 -0.25 255.1032 766.8126)" gradientUnits="userSpaceOnUse">
			<stop  offset="0" style="stop-color:#CC4917"/>
			<stop  offset="0.487" style="stop-color:#CC4917;stop-opacity:0.9"/>
			<stop  offset="1" style="stop-color:#CC1517"/>
		</radialGradient>
		<path class="st53" d="M222.7,509c-0.1-0.8,1.2-1.2,1.1-1.3c-0.2-0.2,0.3-1,0-1.7s-1.1,1.3-1.7,1s0-1.4,0-1.4H221
			c0,0-0.3-0.8-0.7-0.9c-0.3-0.1,1.6-0.9,1.6-0.9l1.2-0.2l0.7-0.4l0.7-0.3l-1.1-0.5l-2.1-0.3c0,0,1.7-0.4,1.6-0.8
			c-0.2-0.3-2.6,0.7-1.4-1.2c1.2-1.9,2.4-13.2,1.8-14.6c-1.7-0.9-3.1-2.6-3.7-3.6c-0.4-0.9-1-1.6-1.2-1.8c0,0,0,0,0,0c0,0,0,0,0,0
			c0,0,0,0,0,0l-0.9,0.1h-4.2c-0.5,0-1.2-0.4-1.9-0.8l-0.8-0.4c0,0-0.1,0.1-0.4,0.4c-0.6,0.4-1.6-0.4-1.9-0.4
			c-0.2,0-0.6,1.6-5.4,6.1c-4.8,4.5,0,8.4,0.7,9.2s0.3,2.3,0.3,2.3s-2.3,0.4-3.9,1.7s-0.7,8.4,0.3,9.5c1.1,1.1,3,3.1,4.8,4.1
			c1.8,1.1,3.4,1.6,3.4,1.6c0.2,0,0.4,0.1,0.7,0.2c0,0,0,0,0,0c0.6,0.2,1.6,0.6,2,1.1c0.7,0.9,3.8,0.7,4.1,1
			c0.3,0.3,4.5-0.5,4.9-1.2c0.4-0.7,3.3-0.5,2.5-1.7c-0.8-1.2,1.2-2.3,1.2-2.3S222.8,509.8,222.7,509z M215.1,505.3
			c-0.9,0-1.6-0.5-1.9-0.5s-2.8-0.2-3,0.2s0.1,1.9-0.1,2c-0.2,0.1-0.4,0.8-0.4,1.1s-0.8-0.8-1.1-0.8s-1-0.1-1.4,0.1
			c-0.4,0.2-0.4-2.5,0-2.6s0.9-0.8,0.3-0.9c-0.6-0.1-1.5-1.3-1.6-1.5s-2,0.1-2.2-0.4s-0.6-2-0.2-2.3s0.7,0,0.9-0.4
			c0.2-0.4,1-1.4,1-1.6c-0.1-0.2,0.5-1.4,0.8-1.5c-0.1-0.1-0.3-0.2,0.4-0.5c1.1-0.5,1.6,0.1,1.6,0.1s1.3-1,1.9-0.8
			c0.6,0.2-0.2-0.9,0.2-0.9c0.4-0.1,2.5-1.2,3.2,2.4c0.7,0.4,0.9-0.3,1.7,1.2s1.2,2.2,0.9,2.8c-0.2,0.5-0.7,1.9-1,2
			c0.3,0,1.3,0,1.4,0.3C216.6,502.6,216.1,505.3,215.1,505.3z"/>
		<g>
			<g>
				<g>
					
						<image style="overflow:visible;enable-background:new    ;" width="27" height="39" xlink:href="A1D8BFD6.png"  transform="matrix(0.9708 0 0 0.9708 198.6203 478.3285)">
					</image>
				</g>
				<g>
					
						<image style="overflow:visible;enable-background:new    ;" width="16" height="16" xlink:href="A1D8BFD7.png"  transform="matrix(0.8819 0 0 0.8819 202.9638 493.7423)">
					</image>
				</g>
			</g>
		</g>
	</g>
	<path class="st54" d="M216.6,502.3c-0.1-0.3-1.1-0.3-1.4-0.3c0.3-0.1,0.8-1.4,1-2c0.2-0.5-0.2-1.3-0.9-2.8c-0.8-1.4-1-0.8-1.7-1.2
		c-0.7-3.6-2.7-2.5-3.2-2.4c-0.4,0.1,0.3,1.1-0.2,0.9s-1.9,0.8-1.9,0.8s-0.4-0.5-1.6-0.1c-0.7,0.3-0.6,0.5-0.4,0.5
		c-0.3,0.1-0.9,1.2-0.8,1.5c0.1,0.3-0.8,1.2-1,1.6c-0.2,0.4-0.5,0.1-0.9,0.4c-0.4,0.3,0,1.8,0.2,2.3s2.1,0.2,2.2,0.4
		s0.9,1.4,1.6,1.5c0.6,0.1,0.1,0.8-0.3,0.9s-0.4,2.8,0,2.6s1.1-0.1,1.4-0.1c0.3,0,1.1,1.1,1.1,0.8s0.2-1,0.4-1.1
		c0.2-0.1-0.1-1.6,0.1-2s2.6-0.2,3-0.2s1,0.5,1.9,0.5S216.6,502.6,216.6,502.3z M210.4,499.5c-0.7,0-1.3-0.6-1.3-1.4
		c0-0.8,0.6-1.4,1.3-1.4s1.3,0.6,1.3,1.4C211.6,498.9,211.1,499.5,210.4,499.5z"/>
	<path class="st55" d="M210.4,496.7c-0.7,0-1.3,0.6-1.3,1.4s0.6,1.4,1.3,1.4s1.3-0.6,1.3-1.4C211.6,497.3,211.1,496.7,210.4,496.7z
		 M210.5,498.5c-0.2,0-0.4-0.1-0.4-0.4c0-0.2,0.1-0.4,0.4-0.4c0.2,0,0.3,0.2,0.3,0.4S210.7,498.5,210.5,498.5z"/>
	<path class="st56" d="M215.2,527.5c-0.1-0.2-4.5-7-3.6-11.3l0.8,0.8C212.4,517,213.7,524.6,215.2,527.5z"/>
</g>
<g>
	<g>
		<defs>
			<rect id="SVGID_158_" x="336" y="364.5" width="108.8" height="75.4"/>
		</defs>
		<clipPath id="SVGID_159_">
			<use xlink:href="#SVGID_158_"  style="overflow:visible;"/>
		</clipPath>
		<g style="clip-path:url(#SVGID_159_);">
			
				<use xlink:href="#Herbe_7"  width="108.8" height="75.4" x="-54.4" y="-37.7" transform="matrix(1 0 0 -1 390.3965 402.1594)" style="overflow:visible;"/>
		</g>
	</g>
	<g>
		<defs>
			<rect id="SVGID_160_" x="297.6" y="461.4" width="108.8" height="75.4"/>
		</defs>
		<clipPath id="SVGID_161_">
			<use xlink:href="#SVGID_160_"  style="overflow:visible;"/>
		</clipPath>
		<g style="clip-path:url(#SVGID_161_);">
			
				<use xlink:href="#Herbe_7"  width="108.8" height="75.4" x="-54.4" y="-37.7" transform="matrix(1 0 0 -1 351.9742 499.0997)" style="overflow:visible;"/>
		</g>
	</g>
	<g>
		<defs>
			<rect id="SVGID_162_" x="221" y="378" width="108.8" height="75.4"/>
		</defs>
		<clipPath id="SVGID_163_">
			<use xlink:href="#SVGID_162_"  style="overflow:visible;"/>
		</clipPath>
		<g style="clip-path:url(#SVGID_163_);">
			
				<use xlink:href="#Herbe_7"  width="108.8" height="75.4" x="-54.4" y="-37.7" transform="matrix(1 0 0 -1 275.3719 415.703)" style="overflow:visible;"/>
		</g>
	</g>
	<g>
		<defs>
			<rect id="SVGID_164_" x="371.9" y="457.5" width="108.8" height="75.4"/>
		</defs>
		<clipPath id="SVGID_165_">
			<use xlink:href="#SVGID_164_"  style="overflow:visible;"/>
		</clipPath>
		<g style="clip-path:url(#SVGID_165_);">
			
				<use xlink:href="#Herbe_7"  width="108.8" height="75.4" x="-54.4" y="-37.7" transform="matrix(1 0 0 -1 426.2907 495.1749)" style="overflow:visible;"/>
		</g>
	</g>
</g>
<g>
	<g>
		<defs>
			<rect id="SVGID_166_" x="223.6" y="475.1" width="108.8" height="75.4"/>
		</defs>
		<clipPath id="SVGID_167_">
			<use xlink:href="#SVGID_166_"  style="overflow:visible;"/>
		</clipPath>
		<g style="clip-path:url(#SVGID_167_);">
			
				<use xlink:href="#Herbe_7"  width="108.8" height="75.4" x="-54.4" y="-37.7" transform="matrix(1 0 0 -1 277.9787 512.8488)" style="overflow:visible;"/>
		</g>
	</g>
	<g>
		<defs>
			<rect id="SVGID_168_" x="375.2" y="462.4" width="108.8" height="75.4"/>
		</defs>
		<clipPath id="SVGID_169_">
			<use xlink:href="#SVGID_168_"  style="overflow:visible;"/>
		</clipPath>
		<g style="clip-path:url(#SVGID_169_);">
			
				<use xlink:href="#Herbe_7"  width="108.8" height="75.4" x="-54.4" y="-37.7" transform="matrix(1 0 0 -1 429.5829 500.1298)" style="overflow:visible;"/>
		</g>
	</g>
	<g>
		<defs>
			<rect id="SVGID_170_" x="317.1" y="376.7" width="108.8" height="75.4"/>
		</defs>
		<clipPath id="SVGID_171_">
			<use xlink:href="#SVGID_170_"  style="overflow:visible;"/>
		</clipPath>
		<g style="clip-path:url(#SVGID_171_);">
			
				<use xlink:href="#Herbe_7"  width="108.8" height="75.4" x="-54.4" y="-37.7" transform="matrix(1 0 0 -1 371.4965 414.4197)" style="overflow:visible;"/>
		</g>
	</g>
	<g>
		<defs>
			<rect id="SVGID_172_" x="288.1" y="288" width="108.8" height="75.4"/>
		</defs>
		<clipPath id="SVGID_173_">
			<use xlink:href="#SVGID_172_"  style="overflow:visible;"/>
		</clipPath>
		<g style="clip-path:url(#SVGID_173_);">
			
				<use xlink:href="#Herbe_7"  width="108.8" height="75.4" x="-54.4" y="-37.7" transform="matrix(1 0 0 -1 342.4668 325.7266)" style="overflow:visible;"/>
		</g>
	</g>
	<g>
		<defs>
			<rect id="SVGID_174_" x="412.2" y="428.9" width="108.8" height="75.4"/>
		</defs>
		<clipPath id="SVGID_175_">
			<use xlink:href="#SVGID_174_"  style="overflow:visible;"/>
		</clipPath>
		<g style="clip-path:url(#SVGID_175_);">
			
				<use xlink:href="#Herbe_7"  width="108.8" height="75.4" x="-54.4" y="-37.7" transform="matrix(1 0 0 -1 466.6025 466.6372)" style="overflow:visible;"/>
		</g>
	</g>
	<g>
		<defs>
			<rect id="SVGID_176_" x="363.1" y="486.5" width="50.1" height="56"/>
		</defs>
		<clipPath id="SVGID_177_">
			<use xlink:href="#SVGID_176_"  style="overflow:visible;"/>
		</clipPath>
		<g style="clip-path:url(#SVGID_177_);">
			
				<use xlink:href="#Coccinelle"  width="50.1" height="56" x="-25.1" y="-28" transform="matrix(1 0 0 -1 388.1985 514.4912)" style="overflow:visible;"/>
		</g>
	</g>
	<g>
		<defs>
			<rect id="SVGID_178_" x="365.6" y="444.9" width="50.1" height="56"/>
		</defs>
		<clipPath id="SVGID_179_">
			<use xlink:href="#SVGID_178_"  style="overflow:visible;"/>
		</clipPath>
		<g style="clip-path:url(#SVGID_179_);">
			
				<use xlink:href="#Coccinelle"  width="50.1" height="56" x="-25.1" y="-28" transform="matrix(1 0 0 -1 390.6344 472.9533)" style="overflow:visible;"/>
		</g>
	</g>
	<g>
		<defs>
			<rect id="SVGID_180_" x="375.4" y="465.6" width="50.1" height="56"/>
		</defs>
		<clipPath id="SVGID_181_">
			<use xlink:href="#SVGID_180_"  style="overflow:visible;"/>
		</clipPath>
		<g style="clip-path:url(#SVGID_181_);">
			
				<use xlink:href="#Coccinelle"  width="50.1" height="56" x="-25.1" y="-28" transform="matrix(1 0 0 -1 400.4858 493.5936)" style="overflow:visible;"/>
		</g>
	</g>
</g>
<g>
	<path class="st50" d="M356.5,310.9l0.4,0.2C357,310.8,356.5,310.9,356.5,310.9z"/>
	<path class="st51" d="M405.2,317.7l-5.8,0.7h-25.9C380.4,318.4,400.8,311.9,405.2,317.7z"/>
	
		<image style="overflow:visible;enable-background:new    ;" width="139" height="266" xlink:href="A1D8BFD2.png"  transform="matrix(1 0 0 1 223 300.8898)">
	</image>
	
		<image style="overflow:visible;enable-background:new    ;" width="161" height="265" xlink:href="A1D8BFDD.png"  transform="matrix(1 0 0 1 349 317.8898)">
	</image>
	<path class="st52" d="M359.4,429.8c0,1.2-1,2.1-2.1,2.1c-1.2,0-2.1-1-2.1-2.1c0-1.2,1-2.1,2.1-2.1
		C358.5,427.6,359.4,428.6,359.4,429.8z"/>
	<path class="st0" d="M361.8,313.2c4.1,2.9,8.5,5.2,11.7,5.2L361.8,313.2z M349.1,524.2c-1.5-0.8-2.8-1.2-4.1-1.2
		C345,523,346.7,523.4,349.1,524.2z"/>
	<g>
		
			<radialGradient id="SVGID_182_" cx="365.1555" cy="417.6205" r="98.0325" fx="339.3506" fy="421.1687" gradientTransform="matrix(0.5 -0.866 -0.433 -0.25 363.4021 844.9083)" gradientUnits="userSpaceOnUse">
			<stop  offset="0" style="stop-color:#CC4917"/>
			<stop  offset="0.487" style="stop-color:#CC4917;stop-opacity:0.9"/>
			<stop  offset="1" style="stop-color:#CC1517"/>
		</radialGradient>
		<path class="st57" d="M432.5,496.4c-0.3-4.8,7.5-7.1,6.5-8.2c-1-1,1.7-6.5,0-10.5c-1.7-4.1-6.8,8.2-10.2,6.5c-3.4-1.7,0-8.5,0-8.5
			h-6.8c0,0-2-5.1-4.1-5.5c-2-0.3,9.5-5.8,9.5-5.8l7.1-1.4l4.4-2.4l4.4-1.7l-6.5-3.4l-12.9-1.7c0,0,10.5-2.7,9.5-4.8
			c-1-2-15.7,4.1-8.5-7.6c7.1-11.7,14.6-81.3,10.9-89.8c-10.2-5.4-19.4-16-22.8-22.5c-2.8-5.3-6.2-9.6-7.4-11.1c0,0-0.1-0.1-0.1-0.1
			c-0.1-0.1-0.1-0.1-0.2-0.2c-0.1-0.1-0.1-0.1-0.1-0.1l-5.8,0.7h-25.9c-3.3,0-7.6-2.3-11.7-5.2l-4.9-2.1c0,0.3-0.5,0.8-2.5,2.2
			c-3.9,2.7-10.1-2.4-11.5-2.4c-1.4,0-3.8,9.9-33.4,37.5c-29.6,27.6,0,51.4,4.5,56.5c4.5,5.1,2,14,2,14s-14.3,2.4-23.8,10.5
			s-4.4,51.4,2,58.2c6.5,6.8,18.7,19.1,29.6,25.5c10.9,6.5,21.1,9.9,21.1,9.9c1.3,0,2.6,0.4,4.1,1.2c0,0,0,0,0,0
			c4,1.3,9.7,3.6,12.2,7c4.1,5.4,23.5,4.4,25.5,6.1c2,1.7,27.6-3.4,30.3-7.5c2.7-4.1,20.1-3.1,15.3-10.2c-4.8-7.2,7.5-14,7.5-14
			S432.8,501.2,432.5,496.4z M385.8,473.6c-5.8,0-9.5-3.4-11.7-3.4c-2.2,0-17.2-1-18.2,1c-1,2,0.8,11.6-0.7,12.1s-2.5,4.6-2.5,6.8
			c0,2.2-4.9-4.8-6.6-4.6c-1.7,0.2-6-0.3-8.3,0.9s-2.5-15.3,0-16.2s5.8-4.8,1.9-5.6c-3.9-0.9-9.4-8-9.7-9.5
			c-0.3-1.5-12.1,0.7-13.5-2.7c-1.4-3.4-3.6-12.5-1.4-14.4c2.2-1.9,4.1-0.1,5.3-2.6c1.2-2.6,6.3-8.3,6-9.9c-0.3-1.4,3.1-8.3,5-8.9
			c-0.9-0.4-1.6-1.4,2.6-3.2c7-2.9,9.7,0.3,9.7,0.3s8.1-6.3,11.5-5.1s-1.1-5.3,1.4-5.8c2.6-0.5,15.1-7.5,19.4,14.6
			c4.3,2.4,5.4-1.5,10.2,7.1s7.1,13.6,5.8,16.9c-1.3,3.2-4.2,11.5-6,12c1.6-0.1,8.3-0.1,8.7,1.6
			C395.2,457.1,391.6,473.6,385.8,473.6z"/>
		<g>
			<g>
				<g>
					
						<image style="overflow:visible;enable-background:new    ;" width="159" height="229" xlink:href="A1D8BFDE.png"  transform="matrix(0.9944 0 0 0.9944 286.4543 310.4119)">
					</image>
				</g>
				<g>
					
						<image style="overflow:visible;enable-background:new    ;" width="83" height="92" xlink:href="A1D8BFDF.png"  transform="matrix(0.9803 0 0 0.9803 313.7259 400.886)">
					</image>
				</g>
			</g>
		</g>
	</g>
	<path class="st54" d="M394.7,455.1c-0.4-1.6-7-1.6-8.7-1.6c1.7-0.5,4.6-8.8,6-12c1.4-3.4-1-8.2-5.8-16.9c-4.8-8.7-6-4.8-10.2-7.1
		c-4.3-22.1-16.9-15.1-19.4-14.6c-2.5,0.5,2,7-1.4,5.8c-3.5-1.2-11.5,5.1-11.5,5.1s-2.7-3.2-9.7-0.3c-4.3,1.8-3.5,2.8-2.6,3.2
		c-1.9,0.6-5.3,7.5-5,8.9c0.3,1.5-4.8,7.3-6,9.9c-1.2,2.5-3.1,0.7-5.3,2.6c-2.2,1.9,0,11,1.4,14.4c1.4,3.4,13.1,1.2,13.5,2.7
		c0.3,1.5,5.8,8.7,9.7,9.5c3.9,0.9,0.7,4.8-1.9,5.6s-2.4,17.4,0,16.2s6.6-0.7,8.3-0.9c1.7-0.2,6.6,6.8,6.6,4.6c0-2.2,1-6.3,2.5-6.8
		c1.5-0.5-0.3-10,0.7-12.1s16-1,18.2-1c2.2,0,6,3.4,11.7,3.4C391.6,473.6,395.2,457.1,394.7,455.1z M356.5,438
		c-4.3,0-7.7-3.8-7.7-8.6s3.5-8.6,7.7-8.6c4.3,0,7.8,3.9,7.8,8.6S360.8,438,356.5,438z"/>
	<path class="st55" d="M356.5,420.8c-4.3,0-7.7,3.9-7.7,8.6s3.5,8.6,7.7,8.6c4.3,0,7.8-3.8,7.8-8.6S360.8,420.8,356.5,420.8z
		 M357.3,431.9c-1.2,0-2.1-1-2.1-2.1c0-1.2,1-2.1,2.1-2.1c1.2,0,2.1,1,2.1,2.1C359.4,430.9,358.5,431.9,357.3,431.9z"/>
	<path class="st56" d="M386.5,610.3c-0.8-1.2-27.5-43.1-22.2-69.2l4.8,4.6C369.1,545.7,377.3,592.2,386.5,610.3z"/>
</g>
<g class="st58">
	<path class="st50" d="M133.6,350.9L133.6,350.9C133.6,350.9,133.6,350.9,133.6,350.9z"/>
	<path class="st51" d="M142.6,352.2l-1.1,0.1h-4.8C138,352.3,141.8,351.1,142.6,352.2z"/>
	
		<image style="overflow:visible;enable-background:new    ;" width="27" height="50" xlink:href="A1D8BFD4.png"  transform="matrix(1 0 0 1 108 348.8898)">
	</image>
	
		<image style="overflow:visible;enable-background:new    ;" width="30" height="50" xlink:href="6453B94A.png"  transform="matrix(1 0 0 1 132 351.8898)">
	</image>
	<path class="st52" d="M134.1,373c0,0.2-0.2,0.4-0.4,0.4c-0.2,0-0.4-0.2-0.4-0.4s0.2-0.4,0.4-0.4C133.9,372.6,134.1,372.8,134.1,373
		z"/>
	<path class="st0" d="M134.5,351.4c0.8,0.5,1.6,1,2.2,1L134.5,351.4z M132.2,390.5c-0.3-0.1-0.5-0.2-0.8-0.2
		C131.4,390.3,131.7,390.4,132.2,390.5z"/>
	<g>
		
			<radialGradient id="SVGID_183_" cx="135.1563" cy="469.9309" r="18.19" fx="130.3682" fy="470.5893" gradientTransform="matrix(0.5 -0.866 -0.433 -0.25 271.0535 606.4904)" gradientUnits="userSpaceOnUse">
			<stop  offset="0" style="stop-color:#CC4917"/>
			<stop  offset="0.487" style="stop-color:#CC4917;stop-opacity:0.9"/>
			<stop  offset="1" style="stop-color:#CC1517"/>
		</radialGradient>
		<path class="st59" d="M147.6,385.4c-0.1-0.9,1.4-1.3,1.2-1.5s0.3-1.2,0-2c-0.3-0.8-1.3,1.5-1.9,1.2c-0.6-0.3,0-1.6,0-1.6h-1.3
			c0,0-0.4-1-0.8-1c-0.4-0.1,1.8-1.1,1.8-1.1l1.3-0.3l0.8-0.4l0.8-0.3l-1.2-0.6l-2.4-0.3c0,0,2-0.5,1.8-0.9
			c-0.2-0.4-2.9,0.8-1.6-1.4s2.7-15.1,2-16.7c-1.9-1-3.6-3-4.2-4.2c-0.5-1-1.1-1.8-1.4-2c0,0,0,0,0,0c0,0,0,0,0,0c0,0,0,0,0,0
			l-1.1,0.1h-4.8c-0.6,0-1.4-0.4-2.2-1l-0.9-0.4c0,0-0.1,0.2-0.5,0.4c-0.7,0.5-1.9-0.4-2.1-0.4s-0.7,1.8-6.2,7
			c-5.5,5.1,0,9.5,0.8,10.5c0.8,1,0.4,2.6,0.4,2.6s-2.7,0.4-4.4,2s-0.8,9.5,0.4,10.8c1.2,1.3,3.5,3.5,5.5,4.7c2,1.2,3.9,1.8,3.9,1.8
			c0.2,0,0.5,0.1,0.8,0.2h0c0.7,0.2,1.8,0.7,2.3,1.3c0.8,1,4.4,0.8,4.7,1.1s5.1-0.6,5.6-1.4s3.7-0.6,2.8-1.9
			c-0.9-1.3,1.4-2.6,1.4-2.6S147.7,386.2,147.6,385.4z M139,381.1c-1.1,0-1.8-0.6-2.2-0.6c-0.4,0-3.2-0.2-3.4,0.2s0.1,2.1-0.1,2.2
			s-0.5,0.9-0.5,1.3s-0.9-0.9-1.2-0.9c-0.3,0-1.1-0.1-1.6,0.2s-0.5-2.8,0-3s1.1-0.9,0.4-1c-0.7-0.2-1.7-1.5-1.8-1.8
			c-0.1-0.3-2.2,0.1-2.5-0.5c-0.3-0.6-0.7-2.3-0.3-2.7c0.4-0.4,0.8,0,1-0.5c0.2-0.5,1.2-1.5,1.1-1.8c-0.1-0.3,0.6-1.5,0.9-1.7
			c-0.2-0.1-0.3-0.3,0.5-0.6c1.3-0.5,1.8,0.1,1.8,0.1s1.5-1.2,2.1-1s-0.2-1,0.3-1.1c0.5-0.1,2.8-1.4,3.6,2.7c0.8,0.4,1-0.3,1.9,1.3
			s1.3,2.5,1.1,3.1c-0.2,0.6-0.8,2.1-1.1,2.2c0.3,0,1.5,0,1.6,0.3C140.7,378,140.1,381.1,139,381.1z"/>
		<g>
			<g>
				<g>
					
						<image style="overflow:visible;enable-background:new    ;" width="31" height="44" xlink:href="6453B94D.png"  transform="matrix(0.9632 0 0 0.9632 120.1463 350.7698)">
					</image>
				</g>
				<g>
					
						<image style="overflow:visible;enable-background:new    ;" width="17" height="18" xlink:href="6453B94E.png"  transform="matrix(0.9388 0 0 0.9388 125.1813 367.5386)">
					</image>
				</g>
			</g>
		</g>
	</g>
	<path class="st54" d="M140.6,377.7c-0.1-0.3-1.3-0.3-1.6-0.3c0.3-0.1,0.9-1.6,1.1-2.2c0.3-0.6-0.2-1.5-1.1-3.1s-1.1-0.9-1.9-1.3
		c-0.8-4.1-3.1-2.8-3.6-2.7c-0.5,0.1,0.4,1.3-0.3,1.1s-2.1,1-2.1,1s-0.5-0.6-1.8-0.1c-0.8,0.3-0.6,0.5-0.5,0.6
		c-0.4,0.1-1,1.4-0.9,1.7c0.1,0.3-0.9,1.4-1.1,1.8s-0.6,0.1-1,0.5c-0.4,0.4,0,2,0.3,2.7s2.4,0.2,2.5,0.5c0.1,0.3,1.1,1.6,1.8,1.8
		s0.1,0.9-0.4,1c-0.5,0.2-0.4,3.2,0,3s1.2-0.1,1.6-0.2s1.2,1.3,1.2,0.9s0.2-1.2,0.5-1.3s-0.1-1.9,0.1-2.2s3-0.2,3.4-0.2
		s1.1,0.6,2.2,0.6C140.1,381.1,140.7,378,140.6,377.7z M133.6,374.5c-0.8,0-1.4-0.7-1.4-1.6s0.6-1.6,1.4-1.6c0.8,0,1.4,0.7,1.4,1.6
		C135,373.8,134.4,374.5,133.6,374.5z"/>
	<path class="st55" d="M133.6,371.3c-0.8,0-1.4,0.7-1.4,1.6c0,0.9,0.6,1.6,1.4,1.6c0.8,0,1.4-0.7,1.4-1.6
		C135,372,134.4,371.3,133.6,371.3z M133.7,373.4c-0.2,0-0.4-0.2-0.4-0.4s0.2-0.4,0.4-0.4s0.4,0.2,0.4,0.4
		C134.1,373.2,133.9,373.4,133.7,373.4z"/>
	<path class="st56" d="M139.1,406.5c-0.1-0.2-5.1-8-4.1-12.9l0.9,0.9C135.9,394.5,137.4,403.1,139.1,406.5z"/>
</g>
<g class="st60">
	<path class="st50" d="M173.7,361L173.7,361C173.8,361,173.7,361,173.7,361z"/>
	<path class="st51" d="M182.8,362.3l-1.1,0.1h-4.8C178.2,362.4,181.9,361.2,182.8,362.3z"/>
	
		<image style="overflow:visible;enable-background:new    ;" width="26" height="50" xlink:href="6453B94C.png"  transform="matrix(1 0 0 1 149 358.8898)">
	</image>
	
		<image style="overflow:visible;enable-background:new    ;" width="31" height="50" xlink:href="6453B94B.png"  transform="matrix(1 0 0 1 172 361.8898)">
	</image>
	<path class="st52" d="M174.3,383c0,0.2-0.2,0.4-0.4,0.4c-0.2,0-0.4-0.2-0.4-0.4s0.2-0.4,0.4-0.4C174.1,382.6,174.3,382.8,174.3,383
		z"/>
	<path class="st0" d="M174.7,361.4c0.8,0.5,1.6,1,2.2,1L174.7,361.4z M172.4,400.5c-0.3-0.1-0.5-0.2-0.8-0.2
		C171.6,400.3,171.9,400.4,172.4,400.5z"/>
	<g>
		
			<radialGradient id="SVGID_184_" cx="175.3308" cy="459.8743" r="18.19" fx="170.5427" fy="460.5327" gradientTransform="matrix(0.5 -0.866 -0.433 -0.25 286.7861 648.825)" gradientUnits="userSpaceOnUse">
			<stop  offset="0" style="stop-color:#CC4917"/>
			<stop  offset="0.487" style="stop-color:#CC4917;stop-opacity:0.9"/>
			<stop  offset="1" style="stop-color:#CC1517"/>
		</radialGradient>
		<path class="st61" d="M187.8,395.4c-0.1-0.9,1.4-1.3,1.2-1.5s0.3-1.2,0-2c-0.3-0.8-1.3,1.5-1.9,1.2c-0.6-0.3,0-1.6,0-1.6h-1.3
			c0,0-0.4-1-0.8-1s1.8-1.1,1.8-1.1l1.3-0.3l0.8-0.4l0.8-0.3l-1.2-0.6l-2.4-0.3c0,0,2-0.5,1.8-0.9c-0.2-0.4-2.9,0.8-1.6-1.4
			s2.7-15.1,2-16.7c-1.9-1-3.6-3-4.2-4.2c-0.5-1-1.1-1.8-1.4-2c0,0,0,0,0,0c0,0,0,0,0,0c0,0,0,0,0,0l-1.1,0.1h-4.8
			c-0.6,0-1.4-0.4-2.2-1l-0.9-0.4c0,0-0.1,0.2-0.5,0.4c-0.7,0.5-1.9-0.4-2.1-0.4s-0.7,1.8-6.2,7c-5.5,5.1,0,9.5,0.8,10.5
			c0.8,1,0.4,2.6,0.4,2.6s-2.6,0.4-4.4,2s-0.8,9.5,0.4,10.8c1.2,1.3,3.5,3.5,5.5,4.7c2,1.2,3.9,1.8,3.9,1.8c0.2,0,0.5,0.1,0.8,0.2h0
			c0.7,0.2,1.8,0.7,2.3,1.3c0.8,1,4.4,0.8,4.7,1.1s5.1-0.6,5.6-1.4s3.7-0.6,2.8-1.9c-0.9-1.3,1.4-2.6,1.4-2.6
			S187.9,396.3,187.8,395.4z M179.2,391.2c-1.1,0-1.8-0.6-2.2-0.6c-0.4,0-3.2-0.2-3.4,0.2s0.1,2.1-0.1,2.2c-0.3,0.1-0.5,0.9-0.5,1.3
			s-0.9-0.9-1.2-0.9c-0.3,0-1.1-0.1-1.6,0.2s-0.5-2.8,0-3s1.1-0.9,0.4-1c-0.7-0.2-1.7-1.5-1.8-1.8c-0.1-0.3-2.2,0.1-2.5-0.5
			c-0.3-0.6-0.7-2.3-0.3-2.7c0.4-0.4,0.8,0,1-0.5c0.2-0.5,1.2-1.5,1.1-1.8c-0.1-0.3,0.6-1.5,0.9-1.7c-0.2-0.1-0.3-0.3,0.5-0.6
			c1.3-0.5,1.8,0.1,1.8,0.1s1.5-1.2,2.1-1s-0.2-1,0.3-1.1c0.5-0.1,2.8-1.4,3.6,2.7c0.8,0.4,1-0.3,1.9,1.3c0.9,1.6,1.3,2.5,1.1,3.1
			c-0.2,0.6-0.8,2.1-1.1,2.2c0.3,0,1.5,0,1.6,0.3C180.9,388.1,180.2,391.2,179.2,391.2z"/>
		<g>
			<g>
				<g>
					
						<image style="overflow:visible;enable-background:new    ;" width="31" height="44" xlink:href="6453B955.png"  transform="matrix(0.9632 0 0 0.9632 160.3207 360.8264)">
					</image>
				</g>
				<g>
					
						<image style="overflow:visible;enable-background:new    ;" width="17" height="18" xlink:href="6453B956.png"  transform="matrix(0.9388 0 0 0.9388 165.3558 377.5951)">
					</image>
				</g>
			</g>
		</g>
	</g>
	<path class="st54" d="M180.8,387.7c-0.1-0.3-1.3-0.3-1.6-0.3c0.3-0.1,0.9-1.6,1.1-2.2c0.3-0.6-0.2-1.5-1.1-3.1
		c-0.9-1.6-1.1-0.9-1.9-1.3c-0.8-4.1-3.1-2.8-3.6-2.7c-0.5,0.1,0.4,1.3-0.3,1.1s-2.1,1-2.1,1s-0.5-0.6-1.8-0.1
		c-0.8,0.3-0.6,0.5-0.5,0.6c-0.4,0.1-1,1.4-0.9,1.7c0.1,0.3-0.9,1.4-1.1,1.8s-0.6,0.1-1,0.5c-0.4,0.4,0,2,0.3,2.7s2.4,0.2,2.5,0.5
		c0.1,0.3,1.1,1.6,1.8,1.8s0.1,0.9-0.4,1c-0.5,0.2-0.4,3.2,0,3s1.2-0.1,1.6-0.2s1.2,1.3,1.2,0.9s0.2-1.2,0.5-1.3s-0.1-1.9,0.1-2.2
		s3-0.2,3.4-0.2s1.1,0.6,2.2,0.6S180.9,388.1,180.8,387.7z M173.7,384.5c-0.8,0-1.4-0.7-1.4-1.6s0.6-1.6,1.4-1.6
		c0.8,0,1.4,0.7,1.4,1.6S174.5,384.5,173.7,384.5z"/>
	<path class="st55" d="M173.7,381.4c-0.8,0-1.4,0.7-1.4,1.6s0.6,1.6,1.4,1.6c0.8,0,1.4-0.7,1.4-1.6S174.5,381.4,173.7,381.4z
		 M173.9,383.4c-0.2,0-0.4-0.2-0.4-0.4s0.2-0.4,0.4-0.4s0.4,0.2,0.4,0.4S174.1,383.4,173.9,383.4z"/>
	<path class="st56" d="M179.3,416.5c-0.1-0.2-5.1-8-4.1-12.9l0.9,0.9C176.1,404.5,177.6,413.2,179.3,416.5z"/>
</g>
<g class="st49">
	<path class="st50" d="M38,362.8L38,362.8C38.1,362.8,38,362.8,38,362.8z"/>
	<path class="st51" d="M44.1,363.7l-0.7,0.1h-3.3C41,363.8,43.6,363,44.1,363.7z"/>
	
		<image style="overflow:visible;enable-background:new    ;" width="18" height="35" xlink:href="6453B954.png"  transform="matrix(1 0 0 1 21 360.8898)">
	</image>
	
		<image style="overflow:visible;enable-background:new    ;" width="21" height="35" xlink:href="6453B95A.png"  transform="matrix(1 0 0 1 37 362.8898)">
	</image>
	<path class="st52" d="M38.4,377.8c0,0.1-0.1,0.3-0.3,0.3s-0.3-0.1-0.3-0.3s0.1-0.3,0.3-0.3C38.3,377.5,38.4,377.6,38.4,377.8z"/>
	<path class="st0" d="M38.7,363.1c0.5,0.4,1.1,0.6,1.5,0.6L38.7,363.1z M37.1,389.7c-0.2-0.1-0.3-0.1-0.5-0.1
		C36.6,389.5,36.8,389.6,37.1,389.7z"/>
	<g>
		
			<radialGradient id="SVGID_185_" cx="39.0991" cy="464.7949" r="12.3315" fx="35.8531" fy="465.2412" gradientTransform="matrix(0.5 -0.866 -0.433 -0.25 220.8009 527.1544)" gradientUnits="userSpaceOnUse">
			<stop  offset="0" style="stop-color:#CC4917"/>
			<stop  offset="0.487" style="stop-color:#CC4917;stop-opacity:0.9"/>
			<stop  offset="1" style="stop-color:#CC1517"/>
		</radialGradient>
		<path class="st62" d="M47.6,386.2c0-0.6,0.9-0.9,0.8-1c-0.1-0.1,0.2-0.8,0-1.3c-0.2-0.5-0.9,1-1.3,0.8c-0.4-0.2,0-1.1,0-1.1h-0.9
			c0,0-0.3-0.6-0.5-0.7c-0.3,0,1.2-0.7,1.2-0.7l0.9-0.2l0.6-0.3l0.6-0.2l-0.8-0.4l-1.6-0.2c0,0,1.3-0.3,1.2-0.6s-2,0.5-1.1-1
			c0.9-1.5,1.8-10.2,1.4-11.3c-1.3-0.7-2.4-2-2.9-2.8c-0.3-0.7-0.8-1.2-0.9-1.4c0,0,0,0,0,0c0,0,0,0,0,0c0,0,0,0,0,0l-0.7,0.1h-3.3
			c-0.4,0-1-0.3-1.5-0.6l-0.6-0.3c0,0-0.1,0.1-0.3,0.3c-0.5,0.3-1.3-0.3-1.4-0.3s-0.5,1.2-4.2,4.7c-3.7,3.5,0,6.5,0.6,7.1
			c0.6,0.6,0.3,1.8,0.3,1.8s-1.8,0.3-3,1.3c-1.2,1-0.6,6.5,0.3,7.3c0.8,0.9,2.4,2.4,3.7,3.2s2.7,1.2,2.7,1.2c0.2,0,0.3,0,0.5,0.1
			c0,0,0,0,0,0c0.5,0.2,1.2,0.5,1.5,0.9c0.5,0.7,3,0.6,3.2,0.8c0.3,0.2,3.5-0.4,3.8-0.9s2.5-0.4,1.9-1.3s0.9-1.8,0.9-1.8
			S47.6,386.8,47.6,386.2z M41.7,383.3c-0.7,0-1.2-0.4-1.5-0.4s-2.2-0.1-2.3,0.1s0.1,1.5-0.1,1.5s-0.3,0.6-0.3,0.9s-0.6-0.6-0.8-0.6
			s-0.8,0-1,0.1s-0.3-1.9,0-2c0.3-0.1,0.7-0.6,0.2-0.7c-0.5-0.1-1.2-1-1.2-1.2s-1.5,0.1-1.7-0.3s-0.5-1.6-0.2-1.8
			c0.3-0.2,0.5,0,0.7-0.3c0.2-0.3,0.8-1,0.8-1.2c0-0.2,0.4-1,0.6-1.1c-0.1,0-0.2-0.2,0.3-0.4c0.9-0.4,1.2,0,1.2,0s1-0.8,1.5-0.6
			s-0.1-0.7,0.2-0.7c0.3-0.1,1.9-0.9,2.4,1.8c0.5,0.3,0.7-0.2,1.3,0.9s0.9,1.7,0.7,2.1c-0.2,0.4-0.5,1.4-0.8,1.5c0.2,0,1,0,1.1,0.2
			C42.9,381.2,42.4,383.3,41.7,383.3z"/>
		<g>
			<g>
				<g>
					
						<image style="overflow:visible;enable-background:new    ;" width="22" height="30" xlink:href="6453B95D.png"  transform="matrix(0.9414 0 0 0.9414 28.7623 362.9754)">
					</image>
				</g>
				<g>
					
						<image style="overflow:visible;enable-background:new    ;" width="12" height="14" xlink:href="6453B971.png"  transform="matrix(0.8729 0 0 0.8729 32.5091 373.7125)">
					</image>
				</g>
			</g>
		</g>
	</g>
	<path class="st54" d="M42.8,381c0-0.2-0.9-0.2-1.1-0.2c0.2-0.1,0.6-1.1,0.8-1.5c0.2-0.4-0.1-1-0.7-2.1s-0.8-0.6-1.3-0.9
		c-0.5-2.8-2.1-1.9-2.4-1.8s0.3,0.9-0.2,0.7c-0.4-0.1-1.5,0.6-1.5,0.6s-0.3-0.4-1.2,0c-0.5,0.2-0.4,0.4-0.3,0.4
		c-0.2,0.1-0.7,0.9-0.6,1.1c0,0.2-0.6,0.9-0.8,1.2c-0.2,0.3-0.4,0.1-0.7,0.3c-0.3,0.2,0,1.4,0.2,1.8s1.7,0.1,1.7,0.3
		c0,0.2,0.7,1.1,1.2,1.2c0.5,0.1,0.1,0.6-0.2,0.7c-0.3,0.1-0.3,2.2,0,2s0.8-0.1,1-0.1s0.8,0.9,0.8,0.6s0.1-0.8,0.3-0.9
		c0.2-0.1,0-1.3,0.1-1.5c0.1-0.3,2-0.1,2.3-0.1c0.3,0,0.8,0.4,1.5,0.4C42.4,383.3,42.9,381.2,42.8,381z M38,378.8
		c-0.5,0-1-0.5-1-1.1s0.4-1.1,1-1.1c0.5,0,1,0.5,1,1.1S38.5,378.8,38,378.8z"/>
	<path class="st55" d="M38,376.6c-0.5,0-1,0.5-1,1.1s0.4,1.1,1,1.1c0.5,0,1-0.5,1-1.1S38.5,376.6,38,376.6z M38.1,378
		c-0.2,0-0.3-0.1-0.3-0.3s0.1-0.3,0.3-0.3s0.3,0.1,0.3,0.3S38.3,378,38.1,378z"/>
	<path class="st56" d="M41.8,400.5c-0.1-0.1-3.5-5.4-2.8-8.7l0.6,0.6C39.6,392.4,40.6,398.2,41.8,400.5z"/>
</g>
</svg>
